<svg width="95" height="45" viewBox="0 0 95 45" fill="none" xmlns="http://www.w3.org/2000/svg">
<circle cx="22.7253" cy="22.3663" r="16.7864" fill="url(#paint0_linear_668_71)"/>
<path d="M20.106 29.4018C18.2977 28.9158 16.281 29.708 14.5394 29.0171C14.4986 28.9963 14.4529 28.9869 14.4072 28.9897C14.3711 28.9989 14.3376 29.0164 14.3095 29.0409L12.4727 30.3834C12.8658 30.3381 14.1535 30.3929 14.5073 30.4084C15.1942 30.441 15.8795 30.4966 16.5633 30.5752C17.9403 30.7337 19.3048 30.9872 20.6468 31.334C21.3996 31.5282 22.1346 31.8105 22.8863 31.9987C22.6671 31.3735 22.2996 30.8106 21.8154 30.3584C21.3313 29.9061 20.7447 29.5779 20.106 29.4018Z" fill="white"/>
<path d="M20.6957 29.4686C19.682 29.0481 18.5658 28.9528 17.4699 28.929C16.7242 28.9135 15.9141 28.9087 15.3257 28.4525C15.6026 28.42 15.8723 28.3419 16.1238 28.2214C16.2274 28.3941 16.4299 28.4799 16.6241 28.537C17.5771 28.8182 18.6027 28.68 19.5795 28.8539C20.216 28.9716 20.8218 29.2182 21.3595 29.5785C21.8972 29.9388 22.3556 30.4053 22.7065 30.9493C22.8545 31.1762 22.9591 31.4287 23.015 31.6938C22.8021 31.2515 22.5247 30.8432 22.1919 30.4823C21.7688 30.0443 21.2593 29.6991 20.6957 29.4686Z" fill="white"/>
<path d="M19.952 28.5394C19.4672 28.4358 18.9371 28.4203 18.444 28.3702C18.2014 28.3508 17.9618 28.3049 17.7292 28.2333C17.4969 28.162 17.2884 28.0285 17.1265 27.8473C17.3264 27.8683 17.5285 27.8384 17.7137 27.7603C17.7406 27.8471 17.7949 27.9228 17.8686 27.976C18.0683 28.1269 18.3025 28.2256 18.55 28.263C18.7954 28.3071 19.0455 28.3155 19.2933 28.3393C19.9489 28.3819 20.5838 28.5866 21.1409 28.9349C21.3529 29.087 21.5521 29.2564 21.7365 29.4412C21.2236 29.0003 20.6112 28.6908 19.952 28.5394Z" fill="white"/>
<path d="M23.0159 32.4323C23.0159 32.4323 18.6965 30.7646 12.1758 30.7491L11.5659 31.1934C11.5659 31.1934 17.0181 30.6741 23.0159 32.4323Z" fill="white"/>
<path d="M25.9253 29.4126C27.7336 28.9266 29.7515 29.7187 31.4919 29.0278C31.5332 29.0072 31.5792 28.9977 31.6253 29.0004C31.6612 29.0102 31.6945 29.0277 31.723 29.0516L33.5586 30.3941C33.1667 30.3489 31.8778 30.4037 31.524 30.4191C30.8363 30.4509 30.151 30.5065 29.468 30.5859C28.091 30.7444 26.7265 30.9979 25.3845 31.3447C24.6317 31.5389 23.8967 31.8212 23.145 32.0094C23.3642 31.3842 23.7317 30.8214 24.2159 30.3691C24.7 29.9169 25.2866 29.5887 25.9253 29.4126Z" fill="white"/>
<path d="M25.3366 29.4829C26.3491 29.0624 27.4653 28.9671 28.5612 28.9432C29.3069 28.9278 30.117 28.923 30.7054 28.4668C30.4284 28.4346 30.1587 28.3565 29.9073 28.2357C29.7844 28.3987 29.606 28.5111 29.4058 28.5513C28.4528 28.8313 27.4284 28.6943 26.4504 28.8682C25.8139 28.9859 25.2082 29.2325 24.6704 29.5928C24.1327 29.9531 23.6743 30.4196 23.3234 30.9635C23.1758 31.1906 23.0716 31.443 23.0161 31.7081C23.2287 31.2658 23.5057 30.8575 23.8381 30.4966C24.2617 30.0582 24.7721 29.713 25.3366 29.4829Z" fill="white"/>
<path d="M26.0789 28.5501C26.5637 28.4465 27.095 28.431 27.587 28.381C27.8295 28.3615 28.0692 28.3156 28.3017 28.244C28.5343 28.1727 28.7429 28.0388 28.9044 27.8569C28.705 27.8788 28.5032 27.8493 28.3184 27.7711C28.2911 27.858 28.2364 27.9337 28.1623 27.9867C27.9627 28.1378 27.7285 28.2365 27.4809 28.2738C27.2355 28.3179 26.9866 28.3262 26.7376 28.35C26.082 28.3927 25.4472 28.5973 24.89 28.9456C24.6782 29.0981 24.479 29.2674 24.2944 29.4519C24.8073 29.011 25.4197 28.7015 26.0789 28.5501Z" fill="white"/>
<path d="M23.0161 32.443C23.0161 32.443 27.3343 30.7753 33.8562 30.7598L34.4661 31.2042C34.4661 31.2042 29.0127 30.686 23.0161 32.443Z" fill="#F5CCDC"/>
<path d="M14.624 31.6422C14.624 31.6422 19.3138 31.7482 23.0162 32.8858V33.4147C23.0162 33.4147 21.0316 32.3831 14.624 31.6422Z" fill="#421200"/>
<path d="M31.4071 31.6422C31.4071 31.6422 26.7172 31.7482 23.0161 32.8858V33.4147C23.0161 33.4147 25.0031 32.3831 31.4071 31.6422Z" fill="#421200"/>
<path d="M5.13084 19.0978C4.69386 21.3445 4.69386 23.6544 5.13084 25.9011C3.68541 25.3248 3.12939 22.4994 3.12939 22.4994C3.12939 22.4994 3.68541 19.6741 5.13084 19.0978Z" fill="#FFC057"/>
<path d="M12.6243 37.1842C11.1969 37.8001 8.80335 36.1931 8.80335 36.1931C8.80335 36.1931 7.19631 33.8006 7.80771 32.3755C9.08755 34.2745 10.7232 35.9075 12.6243 37.1842Z" fill="#FFC057"/>
<path d="M25.9011 39.8683C25.3248 41.3148 22.4995 41.8708 22.4995 41.8708C22.4995 41.8708 19.6742 41.3148 19.0967 39.8683C21.3436 40.3037 23.6531 40.3037 25.9 39.8683H25.9011Z" fill="#FFC057"/>
<path d="M37.1913 32.3756C37.8072 33.8029 36.2002 36.1965 36.2002 36.1965C36.2002 36.1965 33.8009 37.8036 32.377 37.191C34.2777 35.9114 35.9126 34.2758 37.1913 32.3745V32.3756Z" fill="#FFC057"/>
<path d="M39.8682 19.0978C41.3147 19.6741 41.8707 22.4994 41.8707 22.4994C41.8707 22.4994 41.3147 25.3247 39.8682 25.9022C40.3036 23.6554 40.3036 21.3458 39.8682 19.0989V19.0978Z" fill="#FFC057"/>
<path d="M36.1966 8.80237C36.1966 8.80237 37.8037 11.1982 37.1911 12.6222C35.9128 10.724 34.2796 9.09073 32.3813 7.81238C33.8008 7.19646 36.1966 8.80237 36.1966 8.80237Z" fill="#FFC057"/>
<path d="M22.4995 3.12915C22.4995 3.12915 25.3248 3.68517 25.9 5.1306C23.6533 4.69362 21.3434 4.69362 19.0967 5.1306C19.6742 3.68517 22.4995 3.12915 22.4995 3.12915Z" fill="#FFC057"/>
<path d="M12.6234 7.80785C10.7251 9.0862 9.09192 10.7194 7.81356 12.6177C7.19878 11.1914 8.80468 8.79784 8.80468 8.79784C8.80468 8.79784 11.1983 7.19646 12.6234 7.80785Z" fill="#FFC057"/>
<path d="M39.1124 19.2447C38.8978 18.1413 38.5729 17.0623 38.1427 16.0238C38.1431 16.0204 38.1431 16.017 38.1427 16.0137C36.4203 11.873 33.1294 8.58204 28.9887 6.85966H28.9786C27.9391 6.42808 26.859 6.10209 25.7543 5.88663C23.6046 5.46923 21.3946 5.46923 19.2448 5.88663C18.1414 6.10105 17.0624 6.4259 16.024 6.85627H16.0149C14.9766 7.28624 13.9843 7.81971 13.0529 8.44861C10.2908 10.3087 8.13609 12.9393 6.85643 16.0137V16.0227C6.42564 17.0613 6.10078 18.1408 5.88678 19.2447C5.46938 21.3944 5.46938 23.6044 5.88678 25.7542C6.10159 26.8576 6.42682 27.9367 6.85756 28.975V28.9841C8.5816 33.1236 11.872 36.414 16.0115 38.138H16.0206C17.0599 38.5702 18.1401 38.8965 19.2448 39.1122C21.3946 39.5296 23.6046 39.5296 25.7543 39.1122C26.8579 38.8978 27.9369 38.5725 28.9752 38.1414H28.9842C33.1246 36.4186 36.4154 33.1279 38.1382 28.9874V28.9784C38.5703 27.9391 38.8967 26.8589 39.1124 25.7542C39.5298 23.6044 39.5298 21.3944 39.1124 19.2447ZM38.3755 25.6095C38.1701 26.664 37.8596 27.6953 37.4488 28.688C37.4488 28.688 37.4488 28.688 37.4488 28.6959C37.0377 29.6882 36.5277 30.6367 35.9265 31.5268C34.1478 34.1667 31.6328 36.2259 28.6938 37.4487H28.6859C27.6934 37.8602 26.662 38.1711 25.6074 38.3765C23.5546 38.7737 21.4446 38.7737 19.3917 38.3765C18.3372 38.1707 17.3059 37.8598 16.3133 37.4487H16.3054C12.3471 35.8004 9.20086 32.6542 7.55258 28.6959V28.688C7.1414 27.6953 6.83058 26.664 6.62475 25.6095C6.22754 23.5567 6.22754 21.4467 6.62475 19.3938C6.83019 18.3392 7.14103 17.3079 7.55258 16.3154V16.3075C9.19996 12.3488 12.3465 9.20269 16.3054 7.55582H16.3133C17.306 7.14501 18.3372 6.83456 19.3917 6.62912C21.4446 6.23191 23.5546 6.23191 25.6074 6.62912C26.6619 6.83472 27.6931 7.14517 28.6859 7.55582H28.6949C32.6537 9.20241 35.8 12.3487 37.4466 16.3075C37.447 16.3105 37.447 16.3135 37.4466 16.3165C38.2597 18.2764 38.6783 20.3775 38.6784 22.4994C38.6788 23.5433 38.5789 24.5848 38.38 25.6095H38.3755Z" fill="white"/>
<path d="M15.7188 6.1477C15.7181 6.14473 15.7181 6.14164 15.7188 6.13866C15.7493 5.9861 16.2431 3.80948 18.9792 2.96189C21.4519 2.20019 22.4995 1 22.4995 1C22.4995 1 23.546 2.20019 26.0119 2.96189C28.7434 3.80722 29.2418 5.9748 29.2757 6.13866V6.1477" stroke="#FFC057" stroke-width="0.5386" stroke-linecap="round" stroke-linejoin="round"/>
<path d="M29.2804 38.85C29.281 38.853 29.281 38.8561 29.2804 38.859C29.2476 39.0127 28.7549 41.1894 26.0166 42.0347C23.5473 42.7987 22.4996 44 22.4996 44C22.4996 44 21.4509 42.7987 18.9838 42.0347C16.241 41.186 15.7539 38.9992 15.7189 38.8579C15.7187 38.8553 15.7187 38.8526 15.7189 38.85" stroke="#FFC057" stroke-width="0.5386" stroke-linecap="round" stroke-linejoin="round"/>
<path d="M6.1477 29.2802H6.13979C5.99627 29.2485 3.81287 28.7614 2.96415 26.0164C2.20019 23.5471 1 22.4994 1 22.4994C1 22.4994 2.20019 21.453 2.96415 18.9859C3.80948 16.2499 5.9861 15.7549 6.13866 15.7232H6.1477" stroke="#FFC057" stroke-width="0.5386" stroke-linecap="round" stroke-linejoin="round"/>
<path d="M38.8501 15.7187H38.8603C39.0241 15.7538 41.1917 16.2499 42.037 18.9814C42.7987 21.4484 44.0001 22.4949 44.0001 22.4949C44.0001 22.4949 42.7987 23.5437 42.037 26.0096C41.1895 28.7479 39.0128 29.2395 38.8591 29.2711C38.8562 29.272 38.8531 29.272 38.8501 29.2711" stroke="#FFC057" stroke-width="0.5386" stroke-linecap="round" stroke-linejoin="round"/>
<path d="M6.14439 15.73C6.14439 15.73 6.14439 15.73 6.14439 15.7221C6.05511 15.5853 4.873 13.7014 6.20542 11.1711C7.41126 8.8871 7.30277 7.29702 7.30277 7.29702C7.30277 7.29702 8.89285 7.41003 11.1768 6.19967C13.7151 4.86161 15.6035 6.05502 15.7301 6.13865" stroke="#FFC057" stroke-width="0.5386" stroke-linecap="round" stroke-linejoin="round"/>
<path d="M38.8557 29.2689V29.2745C38.9393 29.4022 40.135 31.2895 38.7958 33.8289C37.5922 36.1117 37.6984 37.7018 37.6984 37.7018C37.6984 37.7018 36.1084 37.5945 33.8255 38.7992C31.294 40.1316 29.409 38.9495 29.2734 38.8591H29.2666" stroke="#FFC057" stroke-width="0.5386" stroke-linecap="round" stroke-linejoin="round"/>
<path d="M29.2686 6.14318H29.2765C29.4121 6.0539 31.2971 4.87067 33.8286 6.20421C36.1114 7.40892 37.7015 7.30156 37.7015 7.30156C37.7015 7.30156 37.5953 8.89164 38.7989 11.1756C40.1324 13.706 38.9503 15.5899 38.8599 15.7266C38.8599 15.7334 38.8599 15.7345 38.8599 15.7345" stroke="#FFC057" stroke-width="0.5386" stroke-linecap="round" stroke-linejoin="round"/>
<path d="M15.7298 38.8546C15.7298 38.8546 15.7298 38.8546 15.7219 38.8546C15.5852 38.9461 13.7013 40.1282 11.1709 38.7958C8.88694 37.5911 7.29686 37.6984 7.29686 37.6984C7.29686 37.6984 7.40987 36.1084 6.19951 33.8255C4.86709 31.2929 6.0492 29.409 6.13961 29.2734V29.2655" stroke="#FFC057" stroke-width="0.5386" stroke-linecap="round" stroke-linejoin="round"/>
<path d="M31.2073 1.49609C31.2073 1.49609 32.1679 3.59473 30.0206 4.35869C30.0206 4.35869 28.999 2.43183 31.2073 1.49609Z" fill="white"/>
<path d="M13.7976 1.49609C13.7976 1.49609 12.8359 3.59473 14.9842 4.35869C14.9797 4.35869 16.0002 2.43183 13.7976 1.49609Z" fill="white"/>
<path d="M13.7976 43.5027C13.7976 43.5027 12.8359 41.4041 14.9842 40.6401C14.9797 40.6401 16.0002 42.567 13.7976 43.5027Z" fill="white"/>
<path d="M31.2073 43.5027C31.2073 43.5027 32.1679 41.4041 30.0206 40.6401C30.0206 40.6401 28.999 42.567 31.2073 43.5027Z" fill="white"/>
<path d="M43.5027 31.207C43.5027 31.207 41.4041 32.1676 40.6401 30.0193C40.6401 30.0193 42.567 28.9988 43.5027 31.207Z" fill="white"/>
<path d="M43.5027 13.7975C43.5027 13.7975 41.4041 12.8369 40.6401 14.9841C40.6401 14.9785 42.567 16.0001 43.5027 13.7975Z" fill="white"/>
<path d="M1.49609 13.7975C1.49609 13.7975 3.59473 12.8369 4.35869 14.9841C4.35869 14.9785 2.43183 16.0001 1.49609 13.7975Z" fill="white"/>
<path d="M1.49609 31.207C1.49609 31.207 3.59473 32.1676 4.35869 30.0193C4.35869 30.0193 2.43183 28.9988 1.49609 31.207Z" fill="white"/>
<path d="M16.5315 22.2666C17.7835 20.5586 18.504 17.0477 18.7077 15.5058C19.0654 19.6097 18.7673 21.5253 18.5735 21.97L20.1535 23.3489L18.8865 25.3208V23.4972C18.0916 23.0968 16.5077 22.2903 16.5315 22.2666Z" fill="#421200"/>
<path d="M28.7995 22.2666C27.5475 20.5586 26.8271 17.0477 26.6234 15.5058C26.2657 19.6097 26.5638 21.5253 26.7575 21.97L25.1776 23.3489L26.4445 25.3208V23.4972C27.2395 23.0968 28.8234 22.2903 28.7995 22.2666Z" fill="#421200"/>
<path d="M21.834 15.714C22.052 14.7846 22.4294 11.6826 22.5908 10.2477C22.5908 10.498 23.1761 13.9962 23.4688 15.714L24.1953 18.946L23.166 20.4057L24.3013 23.7867L22.9693 25.3208H22.3184L20.9712 23.6824L21.2739 22.7888L22.0913 20.4057L21.1074 18.946C21.1024 18.8567 21.0953 18.6899 21.1074 18.7375C21.2134 18.4098 21.728 16.1608 21.834 15.714Z" fill="#421200"/>
<path d="M22.064 22.9704L22.6335 22.0054V23.9354L22.064 22.9704Z" fill="#FFBF57"/>
<path d="M23.2031 22.9704L22.6336 22.0054V23.9354L23.2031 22.9704Z" fill="#FFBF57"/>
<rect x="22.3149" y="25.3208" width="0.64265" height="2.10322" fill="#421200"/>
<circle cx="22.6656" cy="27.7746" r="0.817919" fill="#421200"/>
<path d="M52.3647 19.0385H53.9307L57.6865 27.2931L61.4289 19.0385H62.9949L58.5623 28.6999H56.784L52.3647 19.0385ZM65.542 19.0385H66.9886V28.6999H65.542V19.0385ZM71.063 19.0385H75.7344C77.2606 19.0385 78.4948 19.4897 79.4371 20.3789C80.3793 21.268 80.8438 22.4359 80.8438 23.8825C80.8438 25.329 80.3793 26.4969 79.4503 27.386C78.5346 28.2619 77.3137 28.6999 75.7875 28.6999H71.063V19.0385ZM72.5095 20.2993V27.4391H75.6548C76.7828 27.4391 77.6985 27.1206 78.3886 26.4703C79.0787 25.82 79.4238 24.9574 79.4238 23.8825C79.4238 22.8075 79.0655 21.9449 78.3621 21.2946C77.6587 20.631 76.743 20.2993 75.6017 20.2993H72.5095ZM83.9582 28.6999H82.4321L87.1433 19.0385H88.8686L93.5798 28.6999H92.0005L90.8061 26.2447H85.1526L83.9582 28.6999ZM87.9794 20.3391L85.71 25.0105H90.2355L87.9794 20.3391Z" fill="white"/>
<defs>
<linearGradient id="paint0_linear_668_71" x1="22.7253" y1="5.57993" x2="22.7253" y2="39.1526" gradientUnits="userSpaceOnUse">
<stop stop-color="#F5A925"/>
<stop offset="1" stop-color="#ED6237"/>
</linearGradient>
</defs>
</svg>
