<svg width="185" height="210" viewBox="0 0 185 210" fill="none" xmlns="http://www.w3.org/2000/svg">
<rect x="0.5" y="0.5" width="184" height="209" rx="9.5" fill="#FFF8F6" stroke="url(#paint0_linear_210_3270)" stroke-dasharray="8 8"/>
<path d="M100.862 48.6679L99.6493 49.8321C99.2127 50.2687 98.4851 50.2201 98.097 49.6866L94.3134 44.5932C93.8769 44.0112 93.0037 44.0597 92.6157 44.6418L86.1641 55.0224C85.7276 55.7015 86.2126 56.5747 87.0373 56.5747H105.955C106.78 56.5747 107.265 55.653 106.78 54.9739L102.414 48.8134C102.026 48.3283 101.299 48.2313 100.862 48.6679Z" fill="black" stroke="white" stroke-width="0.3"/>
<path d="M103.336 45.5634C104.783 45.5634 105.955 44.3906 105.955 42.944C105.955 41.4973 104.783 40.3246 103.336 40.3246C101.889 40.3246 100.717 41.4973 100.717 42.944C100.717 44.3906 101.889 45.5634 103.336 45.5634Z" fill="black" stroke="white" stroke-width="0.3"/>
<path d="M113.426 34.2126L103.433 24.22C103.239 24.026 102.996 23.9289 102.705 23.9289L93.1494 23.8804C91.6942 19.5632 87.6195 16.4587 82.8657 16.4587C76.8993 16.4587 72 21.3095 72 27.3245C72 32.0782 75.1045 36.1529 79.3732 37.6081V59.4851C79.3732 61.1829 80.7314 62.5411 82.4292 62.5411H110.612C112.31 62.5411 113.668 61.1829 113.668 59.4851V34.8917C113.717 34.6492 113.62 34.3581 113.426 34.2126ZM103.724 27.4215L110.224 33.9215H103.724V27.4215ZM74.0373 27.3245C74.0373 22.4737 78.015 18.4961 82.8657 18.4961C87.7165 18.4961 91.6942 22.4737 91.6942 27.3245C91.6942 32.1753 87.7165 36.1529 82.8657 36.1529C78.015 36.1529 74.0373 32.1753 74.0373 27.3245ZM111.679 59.4851C111.679 60.0672 111.243 60.5038 110.661 60.5038H82.4292C81.8471 60.5038 81.4105 60.0672 81.4105 59.4851V38.0932C81.8956 38.1417 82.3807 38.1902 82.8657 38.1902C88.8322 38.1902 93.7315 33.3394 93.7315 27.3245C93.7315 26.8394 93.683 26.4028 93.6345 25.9178L101.687 25.9663V34.9402C101.687 35.5223 102.123 35.9589 102.705 35.9589H111.679V59.4851Z" fill="black" stroke="white" stroke-width="0.3"/>
<path d="M80.3433 25.2872H81.7015V28.9252C81.7015 29.1193 81.8471 29.2648 82.0411 29.2648H83.6904C83.8844 29.2648 84.0299 29.1193 84.0299 28.9252V25.2872H85.3881C85.7277 25.2872 85.9217 24.8991 85.7277 24.6566L83.2053 21.3095C83.0598 21.1155 82.7202 21.1155 82.5747 21.3095L80.0523 24.6566C79.8097 24.8991 80.0038 25.2872 80.3433 25.2872Z" fill="black" stroke="white" stroke-width="0.3"/>
<path d="M87.7161 31.2051C87.7161 30.6715 87.2795 30.1864 86.6974 30.1864H79.0332C78.4996 30.1864 78.0146 30.623 78.0146 31.2051C78.0146 31.7387 78.4511 32.2238 79.0332 32.2238H86.746C87.2795 32.2238 87.7161 31.7872 87.7161 31.2051Z" fill="black" stroke="white" stroke-width="0.3"/>
<rect x="21" y="155" width="144" height="39" rx="8" fill="#D25C2E"/>
<path d="M74.5472 180.112C73.6045 180.112 72.8298 179.93 72.2232 179.566C71.6165 179.193 71.1685 178.67 70.8792 177.998C70.5898 177.326 70.4452 176.533 70.4452 175.618V170.102H72.1952V175.66C72.1952 176.164 72.2652 176.635 72.4052 177.074C72.5545 177.503 72.8018 177.849 73.1472 178.11C73.5018 178.371 73.9778 178.502 74.5752 178.502C75.1818 178.502 75.6485 178.371 75.9752 178.11C76.3112 177.839 76.5445 177.489 76.6752 177.06C76.8152 176.631 76.8852 176.164 76.8852 175.66V170.102H78.6492V175.618C78.6492 176.523 78.5045 177.312 78.2152 177.984C77.9258 178.656 77.4825 179.179 76.8852 179.552C76.2878 179.925 75.5085 180.112 74.5472 180.112ZM80.5164 182.716V172.622H82.1124L82.1964 173.616C82.4858 173.233 82.8311 172.953 83.2324 172.776C83.6338 172.599 84.0771 172.51 84.5624 172.51C85.2904 172.51 85.8924 172.678 86.3684 173.014C86.8444 173.35 87.1991 173.803 87.4324 174.372C87.6658 174.941 87.7824 175.585 87.7824 176.304C87.7824 177.023 87.6611 177.671 87.4184 178.25C87.1758 178.819 86.8071 179.272 86.3124 179.608C85.8271 179.935 85.2158 180.098 84.4784 180.098C84.1331 180.098 83.8158 180.061 83.5264 179.986C83.2464 179.911 82.9944 179.804 82.7704 179.664C82.5558 179.524 82.3738 179.365 82.2244 179.188V182.716H80.5164ZM84.2124 178.558C84.6884 178.558 85.0618 178.455 85.3324 178.25C85.6031 178.035 85.7991 177.76 85.9204 177.424C86.0418 177.079 86.1024 176.715 86.1024 176.332C86.1024 175.931 86.0371 175.557 85.9064 175.212C85.7851 174.867 85.5844 174.587 85.3044 174.372C85.0244 174.157 84.6511 174.05 84.1844 174.05C83.7551 174.05 83.3911 174.157 83.0924 174.372C82.8031 174.577 82.5838 174.853 82.4344 175.198C82.2851 175.543 82.2104 175.917 82.2104 176.318C82.2104 176.729 82.2804 177.107 82.4204 177.452C82.5604 177.788 82.7798 178.059 83.0784 178.264C83.3771 178.46 83.7551 178.558 84.2124 178.558ZM89.1571 180V170.102H90.8651V180H89.1571ZM95.8943 180.098C95.1383 180.098 94.485 179.944 93.9343 179.636C93.393 179.328 92.973 178.889 92.6743 178.32C92.385 177.751 92.2403 177.083 92.2403 176.318C92.2403 175.543 92.3897 174.876 92.6883 174.316C92.987 173.747 93.407 173.303 93.9483 172.986C94.4897 172.669 95.1383 172.51 95.8943 172.51C96.641 172.51 97.285 172.669 97.8263 172.986C98.3677 173.303 98.783 173.751 99.0723 174.33C99.3617 174.899 99.5063 175.571 99.5063 176.346C99.5063 177.102 99.3617 177.765 99.0723 178.334C98.7923 178.894 98.3817 179.328 97.8403 179.636C97.299 179.944 96.6503 180.098 95.8943 180.098ZM95.8803 178.544C96.347 178.544 96.7203 178.441 97.0003 178.236C97.2897 178.031 97.4997 177.76 97.6303 177.424C97.761 177.088 97.8263 176.724 97.8263 176.332C97.8263 175.94 97.761 175.571 97.6303 175.226C97.4997 174.881 97.2897 174.605 97.0003 174.4C96.7203 174.185 96.347 174.078 95.8803 174.078C95.4137 174.078 95.0357 174.185 94.7463 174.4C94.457 174.605 94.247 174.881 94.1163 175.226C93.9857 175.562 93.9203 175.931 93.9203 176.332C93.9203 176.724 93.9857 177.093 94.1163 177.438C94.2563 177.774 94.4663 178.045 94.7463 178.25C95.0357 178.446 95.4137 178.544 95.8803 178.544ZM103.226 180.098C102.881 180.098 102.554 180.051 102.246 179.958C101.938 179.865 101.663 179.729 101.42 179.552C101.177 179.365 100.981 179.137 100.832 178.866C100.692 178.586 100.622 178.259 100.622 177.886C100.622 177.41 100.715 177.023 100.902 176.724C101.089 176.416 101.341 176.183 101.658 176.024C101.985 175.865 102.353 175.758 102.764 175.702C103.175 175.637 103.604 175.604 104.052 175.604H105.494C105.494 175.277 105.443 174.997 105.34 174.764C105.237 174.521 105.074 174.33 104.85 174.19C104.635 174.05 104.355 173.98 104.01 173.98C103.786 173.98 103.576 174.008 103.38 174.064C103.193 174.111 103.03 174.19 102.89 174.302C102.759 174.405 102.666 174.54 102.61 174.708H100.86C100.925 174.325 101.056 173.999 101.252 173.728C101.457 173.448 101.705 173.219 101.994 173.042C102.293 172.865 102.619 172.734 102.974 172.65C103.329 172.557 103.688 172.51 104.052 172.51C105.125 172.51 105.905 172.818 106.39 173.434C106.885 174.05 107.132 174.913 107.132 176.024V180H105.62L105.578 179.048C105.363 179.365 105.107 179.599 104.808 179.748C104.509 179.897 104.22 179.991 103.94 180.028C103.66 180.075 103.422 180.098 103.226 180.098ZM103.562 178.712C103.935 178.712 104.267 178.642 104.556 178.502C104.845 178.362 105.074 178.166 105.242 177.914C105.419 177.662 105.508 177.373 105.508 177.046V176.808H104.164C103.94 176.808 103.716 176.817 103.492 176.836C103.277 176.845 103.081 176.883 102.904 176.948C102.727 177.004 102.582 177.093 102.47 177.214C102.367 177.335 102.316 177.508 102.316 177.732C102.316 177.956 102.372 178.138 102.484 178.278C102.605 178.418 102.759 178.525 102.946 178.6C103.142 178.675 103.347 178.712 103.562 178.712ZM111.773 180.098C111.026 180.098 110.41 179.93 109.925 179.594C109.439 179.249 109.075 178.791 108.833 178.222C108.599 177.653 108.483 177.018 108.483 176.318C108.483 175.59 108.609 174.941 108.861 174.372C109.113 173.793 109.491 173.341 109.995 173.014C110.499 172.678 111.129 172.51 111.885 172.51C112.165 172.51 112.435 172.543 112.697 172.608C112.967 172.664 113.219 172.757 113.453 172.888C113.695 173.009 113.896 173.173 114.055 173.378V170.102H115.763V180H114.111L114.083 179.076C113.905 179.309 113.695 179.501 113.453 179.65C113.219 179.799 112.958 179.911 112.669 179.986C112.379 180.061 112.081 180.098 111.773 180.098ZM112.095 178.558C112.543 178.558 112.911 178.455 113.201 178.25C113.49 178.035 113.705 177.755 113.845 177.41C113.994 177.055 114.069 176.682 114.069 176.29C114.069 175.879 113.994 175.506 113.845 175.17C113.705 174.834 113.49 174.563 113.201 174.358C112.911 174.153 112.543 174.05 112.095 174.05C111.619 174.05 111.241 174.157 110.961 174.372C110.69 174.587 110.489 174.871 110.359 175.226C110.237 175.571 110.177 175.945 110.177 176.346C110.177 176.645 110.209 176.929 110.275 177.2C110.349 177.461 110.461 177.695 110.611 177.9C110.76 178.105 110.956 178.269 111.199 178.39C111.441 178.502 111.74 178.558 112.095 178.558Z" fill="white"/>
<path d="M60.5611 93V83.102H64.3271C64.8031 83.102 65.2371 83.144 65.6291 83.228C66.0304 83.3027 66.3758 83.438 66.6651 83.634C66.9544 83.8207 67.1738 84.0773 67.3231 84.404C67.4818 84.7213 67.5611 85.1227 67.5611 85.608C67.5611 86.084 67.4538 86.5133 67.2391 86.896C67.0244 87.2693 66.6978 87.5493 66.2591 87.736C66.8471 87.8667 67.2904 88.1327 67.5891 88.534C67.8971 88.9353 68.0511 89.4627 68.0511 90.116C68.0511 90.676 67.9484 91.1427 67.7431 91.516C67.5378 91.8893 67.2531 92.1833 66.8891 92.398C66.5251 92.6127 66.1051 92.7667 65.6291 92.86C65.1531 92.9533 64.6444 93 64.1031 93H60.5611ZM62.0451 91.642H64.1591C64.4391 91.642 64.7191 91.628 64.9991 91.6C65.2791 91.5627 65.5358 91.4927 65.7691 91.39C66.0118 91.2873 66.2031 91.1333 66.3431 90.928C66.4924 90.7227 66.5671 90.4473 66.5671 90.102C66.5671 89.8127 66.5111 89.5747 66.3991 89.388C66.2871 89.192 66.1378 89.038 65.9511 88.926C65.7644 88.814 65.5451 88.7347 65.2931 88.688C65.0504 88.6413 64.7984 88.618 64.5371 88.618H62.0451V91.642ZM62.0451 87.344H63.9211C64.2384 87.344 64.5278 87.316 64.7891 87.26C65.0598 87.204 65.2931 87.1107 65.4891 86.98C65.6851 86.8493 65.8344 86.686 65.9371 86.49C66.0491 86.2847 66.1051 86.0373 66.1051 85.748C66.1144 85.3653 66.0304 85.0853 65.8531 84.908C65.6851 84.7213 65.4564 84.6 65.1671 84.544C64.8778 84.4787 64.5604 84.446 64.2151 84.446H62.0451V87.344ZM71.9166 93.084C71.5806 93.084 71.254 93.042 70.9366 92.958C70.6286 92.8647 70.3533 92.7293 70.1106 92.552C69.868 92.3653 69.672 92.1367 69.5226 91.866C69.3826 91.586 69.3126 91.2593 69.3126 90.886C69.3126 90.438 69.3966 90.0693 69.5646 89.78C69.742 89.4813 69.9753 89.2527 70.2646 89.094C70.554 88.926 70.8853 88.8093 71.2586 88.744C71.6413 88.6693 72.038 88.632 72.4486 88.632H74.2546C74.2546 88.268 74.1986 87.9507 74.0866 87.68C73.9746 87.4 73.7973 87.1853 73.5546 87.036C73.3213 86.8773 73.0086 86.798 72.6166 86.798C72.3833 86.798 72.1593 86.826 71.9446 86.882C71.7393 86.9287 71.562 87.008 71.4126 87.12C71.2633 87.232 71.1606 87.3813 71.1046 87.568H69.5926C69.6486 87.2133 69.7746 86.91 69.9706 86.658C70.1666 86.3967 70.4093 86.182 70.6986 86.014C70.988 85.846 71.296 85.7247 71.6226 85.65C71.9586 85.566 72.2993 85.524 72.6446 85.524C73.7086 85.524 74.474 85.8367 74.9406 86.462C75.4166 87.078 75.6546 87.9273 75.6546 89.01V93H74.4086L74.3526 92.062C74.138 92.3513 73.8813 92.5707 73.5826 92.72C73.2933 92.8693 73.004 92.9673 72.7146 93.014C72.4253 93.0607 72.1593 93.084 71.9166 93.084ZM72.1406 91.866C72.5606 91.866 72.9293 91.796 73.2466 91.656C73.564 91.5067 73.8113 91.2967 73.9886 91.026C74.166 90.746 74.2546 90.4193 74.2546 90.046V89.738H72.9386C72.668 89.738 72.402 89.7473 72.1406 89.766C71.8886 89.7753 71.6553 89.8127 71.4406 89.878C71.2353 89.934 71.0673 90.032 70.9366 90.172C70.8153 90.312 70.7546 90.5127 70.7546 90.774C70.7546 91.026 70.82 91.2313 70.9506 91.39C71.0813 91.5487 71.254 91.67 71.4686 91.754C71.6833 91.8287 71.9073 91.866 72.1406 91.866ZM80.5909 93.084C79.8163 93.084 79.1676 92.9253 78.6449 92.608C78.1316 92.2907 77.7443 91.852 77.4829 91.292C77.2309 90.7227 77.1049 90.0693 77.1049 89.332C77.1049 88.604 77.2356 87.9553 77.4969 87.386C77.7676 86.8073 78.1689 86.3547 78.7009 86.028C79.2423 85.692 79.9096 85.524 80.7029 85.524C81.2443 85.524 81.7249 85.6173 82.1449 85.804C82.5649 85.9813 82.9056 86.2473 83.1669 86.602C83.4376 86.9473 83.6149 87.3813 83.6989 87.904H82.2569C82.1356 87.5213 81.9303 87.246 81.6409 87.078C81.3609 86.91 81.0296 86.826 80.6469 86.826C80.1336 86.826 79.7229 86.9473 79.4149 87.19C79.1163 87.4327 78.8969 87.7453 78.7569 88.128C78.6169 88.5107 78.5469 88.912 78.5469 89.332C78.5469 89.7707 78.6169 90.1767 78.7569 90.55C78.9063 90.9233 79.1303 91.2267 79.4289 91.46C79.7369 91.684 80.1383 91.796 80.6329 91.796C81.0063 91.796 81.3516 91.7167 81.6689 91.558C81.9863 91.39 82.1916 91.11 82.2849 90.718H83.7689C83.6849 91.2593 83.4889 91.7073 83.1809 92.062C82.8729 92.4073 82.4903 92.664 82.0329 92.832C81.5849 93 81.1043 93.084 80.5909 93.084ZM85.1642 93V83.102H86.6062V88.688H87.7962L89.8682 85.622H91.4922L89.0702 89.136L91.7022 93H90.0082L87.9082 89.962H86.6062V93H85.1642ZM100.377 93.112C99.7329 93.112 99.1262 93.0187 98.5569 92.832C97.9875 92.6453 97.5069 92.342 97.1149 91.922C96.7229 91.502 96.4615 90.9467 96.3309 90.256H97.8569C97.9782 90.648 98.1742 90.956 98.4449 91.18C98.7155 91.3947 99.0282 91.544 99.3829 91.628C99.7469 91.712 100.111 91.754 100.475 91.754C100.82 91.754 101.142 91.7073 101.441 91.614C101.749 91.5207 102.001 91.3667 102.197 91.152C102.393 90.9373 102.491 90.6573 102.491 90.312C102.491 90.0507 102.44 89.836 102.337 89.668C102.234 89.5 102.09 89.3647 101.903 89.262C101.726 89.15 101.511 89.0613 101.259 88.996C100.97 88.9027 100.657 88.8233 100.321 88.758C99.9942 88.6927 99.6675 88.618 99.3409 88.534C99.0235 88.45 98.7249 88.3427 98.4449 88.212C98.2115 88.1187 97.9829 88.0067 97.7589 87.876C97.5442 87.736 97.3575 87.5727 97.1989 87.386C97.0402 87.19 96.9095 86.9613 96.8069 86.7C96.7135 86.4387 96.6669 86.14 96.6669 85.804C96.6669 85.356 96.7369 84.9733 96.8769 84.656C97.0262 84.3387 97.2175 84.0727 97.4509 83.858C97.6935 83.6433 97.9689 83.4753 98.2769 83.354C98.5942 83.2233 98.9255 83.13 99.2709 83.074C99.6162 83.018 99.9522 82.99 100.279 82.99C100.876 82.99 101.427 83.0833 101.931 83.27C102.435 83.4567 102.85 83.7553 103.177 84.166C103.513 84.5673 103.695 85.0993 103.723 85.762H102.281C102.244 85.4073 102.122 85.1273 101.917 84.922C101.721 84.7073 101.474 84.558 101.175 84.474C100.876 84.3807 100.559 84.334 100.223 84.334C99.9802 84.334 99.7375 84.3573 99.4949 84.404C99.2522 84.4413 99.0282 84.516 98.8229 84.628C98.6269 84.7307 98.4682 84.8707 98.3469 85.048C98.2349 85.2253 98.1789 85.4447 98.1789 85.706C98.1789 85.93 98.2255 86.1307 98.3189 86.308C98.4122 86.476 98.5429 86.6207 98.7109 86.742C98.8882 86.854 99.0842 86.952 99.2989 87.036C99.6909 87.1853 100.12 87.302 100.587 87.386C101.054 87.4607 101.492 87.568 101.903 87.708C102.202 87.8013 102.482 87.918 102.743 88.058C103.004 88.1887 103.228 88.352 103.415 88.548C103.602 88.7347 103.746 88.9587 103.849 89.22C103.952 89.472 104.003 89.766 104.003 90.102C104.003 90.6527 103.905 91.124 103.709 91.516C103.513 91.8987 103.247 92.2067 102.911 92.44C102.575 92.6733 102.188 92.846 101.749 92.958C101.31 93.0607 100.853 93.112 100.377 93.112ZM105.645 93V85.622H107.087V93H105.645ZM106.359 84.642C106.079 84.642 105.85 84.558 105.673 84.39C105.505 84.2127 105.421 83.9887 105.421 83.718C105.421 83.4473 105.509 83.228 105.687 83.06C105.864 82.8827 106.088 82.794 106.359 82.794C106.611 82.794 106.83 82.8827 107.017 83.06C107.213 83.228 107.311 83.4473 107.311 83.718C107.311 83.9887 107.217 84.2127 107.031 84.39C106.853 84.558 106.629 84.642 106.359 84.642ZM111.853 93.084C111.116 93.084 110.505 92.9207 110.019 92.594C109.543 92.258 109.184 91.8053 108.941 91.236C108.708 90.6667 108.591 90.0273 108.591 89.318C108.591 88.5993 108.713 87.9553 108.955 87.386C109.198 86.8073 109.567 86.3547 110.061 86.028C110.556 85.692 111.181 85.524 111.937 85.524C112.217 85.524 112.497 85.5567 112.777 85.622C113.067 85.6873 113.333 85.79 113.575 85.93C113.827 86.0607 114.042 86.238 114.219 86.462V83.102H115.661V93H114.275L114.219 91.992C114.051 92.244 113.841 92.454 113.589 92.622C113.347 92.7807 113.076 92.8973 112.777 92.972C112.479 93.0467 112.171 93.084 111.853 93.084ZM112.091 91.796C112.567 91.796 112.959 91.6793 113.267 91.446C113.585 91.2127 113.823 90.9047 113.981 90.522C114.14 90.1393 114.219 89.724 114.219 89.276C114.219 88.8187 114.14 88.408 113.981 88.044C113.832 87.6707 113.599 87.3767 113.281 87.162C112.973 86.938 112.577 86.826 112.091 86.826C111.587 86.826 111.186 86.9427 110.887 87.176C110.589 87.4 110.369 87.7033 110.229 88.086C110.099 88.4687 110.033 88.8887 110.033 89.346C110.033 89.682 110.071 89.9993 110.145 90.298C110.22 90.5873 110.337 90.8487 110.495 91.082C110.663 91.306 110.878 91.4833 111.139 91.614C111.401 91.7353 111.718 91.796 112.091 91.796ZM120.678 93.084C119.903 93.084 119.255 92.9253 118.732 92.608C118.209 92.2907 117.813 91.852 117.542 91.292C117.281 90.7227 117.15 90.0693 117.15 89.332C117.15 88.5853 117.285 87.9273 117.556 87.358C117.836 86.7887 118.237 86.3407 118.76 86.014C119.292 85.6873 119.931 85.524 120.678 85.524C121.247 85.524 121.742 85.6313 122.162 85.846C122.582 86.0513 122.927 86.3313 123.198 86.686C123.478 87.0407 123.683 87.4373 123.814 87.876C123.945 88.3053 124.001 88.7533 123.982 89.22C123.982 89.3227 123.977 89.4207 123.968 89.514C123.959 89.6073 123.949 89.7053 123.94 89.808H118.606C118.634 90.1813 118.727 90.522 118.886 90.83C119.054 91.138 119.287 91.3853 119.586 91.572C119.885 91.7493 120.253 91.838 120.692 91.838C120.935 91.838 121.168 91.81 121.392 91.754C121.625 91.6887 121.831 91.5907 122.008 91.46C122.195 91.32 122.325 91.1427 122.4 90.928H123.856C123.735 91.4227 123.515 91.8333 123.198 92.16C122.89 92.4773 122.512 92.7107 122.064 92.86C121.625 93.0093 121.163 93.084 120.678 93.084ZM118.634 88.66H122.554C122.545 88.296 122.461 87.974 122.302 87.694C122.143 87.4047 121.924 87.1807 121.644 87.022C121.364 86.854 121.028 86.77 120.636 86.77C120.207 86.77 119.847 86.8587 119.558 87.036C119.278 87.2133 119.059 87.4467 118.9 87.736C118.751 88.016 118.662 88.324 118.634 88.66Z" fill="black"/>
<path d="M41.5369 115.084C40.9849 115.084 40.4889 114.988 40.0489 114.796C39.6169 114.596 39.2769 114.324 39.0289 113.98C38.7809 113.628 38.6529 113.224 38.6449 112.768H39.8089C39.8489 113.16 40.0089 113.492 40.2889 113.764C40.5769 114.028 40.9929 114.16 41.5369 114.16C42.0569 114.16 42.4649 114.032 42.7609 113.776C43.0649 113.512 43.2169 113.176 43.2169 112.768C43.2169 112.448 43.1289 112.188 42.9529 111.988C42.7769 111.788 42.5569 111.636 42.2929 111.532C42.0289 111.428 41.6729 111.316 41.2249 111.196C40.6729 111.052 40.2289 110.908 39.8929 110.764C39.5649 110.62 39.2809 110.396 39.0409 110.092C38.8089 109.78 38.6929 109.364 38.6929 108.844C38.6929 108.388 38.8089 107.984 39.0409 107.632C39.2729 107.28 39.5969 107.008 40.0129 106.816C40.4369 106.624 40.9209 106.528 41.4649 106.528C42.2489 106.528 42.8889 106.724 43.3849 107.116C43.8889 107.508 44.1729 108.028 44.2369 108.676H43.0369C42.9969 108.356 42.8289 108.076 42.5329 107.836C42.2369 107.588 41.8449 107.464 41.3569 107.464C40.9009 107.464 40.5289 107.584 40.2409 107.824C39.9529 108.056 39.8089 108.384 39.8089 108.808C39.8089 109.112 39.8929 109.36 40.0609 109.552C40.2369 109.744 40.4489 109.892 40.6969 109.996C40.9529 110.092 41.3089 110.204 41.7649 110.332C42.3169 110.484 42.7609 110.636 43.0969 110.788C43.4329 110.932 43.7209 111.16 43.9609 111.472C44.2009 111.776 44.3209 112.192 44.3209 112.72C44.3209 113.128 44.2129 113.512 43.9969 113.872C43.7809 114.232 43.4609 114.524 43.0369 114.748C42.6129 114.972 42.1129 115.084 41.5369 115.084ZM51.7599 108.424V115H50.6679V114.028C50.4599 114.364 50.1679 114.628 49.7919 114.82C49.4239 115.004 49.0159 115.096 48.5679 115.096C48.0559 115.096 47.5959 114.992 47.1879 114.784C46.7799 114.568 46.4559 114.248 46.2159 113.824C45.9839 113.4 45.8679 112.884 45.8679 112.276V108.424H46.9479V112.132C46.9479 112.78 47.1119 113.28 47.4399 113.632C47.7679 113.976 48.2159 114.148 48.7839 114.148C49.3679 114.148 49.8279 113.968 50.1639 113.608C50.4999 113.248 50.6679 112.724 50.6679 112.036V108.424H51.7599ZM54.6957 109.636C54.9117 109.26 55.2317 108.948 55.6557 108.7C56.0877 108.444 56.5877 108.316 57.1557 108.316C57.7397 108.316 58.2677 108.456 58.7397 108.736C59.2197 109.016 59.5957 109.412 59.8677 109.924C60.1397 110.428 60.2757 111.016 60.2757 111.688C60.2757 112.352 60.1397 112.944 59.8677 113.464C59.5957 113.984 59.2197 114.388 58.7397 114.676C58.2677 114.964 57.7397 115.108 57.1557 115.108C56.5957 115.108 56.0997 114.984 55.6677 114.736C55.2437 114.48 54.9197 114.164 54.6957 113.788V118.12H53.6037V108.424H54.6957V109.636ZM59.1597 111.688C59.1597 111.192 59.0597 110.76 58.8597 110.392C58.6597 110.024 58.3877 109.744 58.0437 109.552C57.7077 109.36 57.3357 109.264 56.9277 109.264C56.5277 109.264 56.1557 109.364 55.8117 109.564C55.4757 109.756 55.2037 110.04 54.9957 110.416C54.7957 110.784 54.6957 111.212 54.6957 111.7C54.6957 112.196 54.7957 112.632 54.9957 113.008C55.2037 113.376 55.4757 113.66 55.8117 113.86C56.1557 114.052 56.5277 114.148 56.9277 114.148C57.3357 114.148 57.7077 114.052 58.0437 113.86C58.3877 113.66 58.6597 113.376 58.8597 113.008C59.0597 112.632 59.1597 112.192 59.1597 111.688ZM62.8051 109.636C63.0211 109.26 63.3411 108.948 63.7651 108.7C64.1971 108.444 64.6971 108.316 65.2651 108.316C65.8491 108.316 66.3771 108.456 66.8491 108.736C67.3291 109.016 67.7051 109.412 67.9771 109.924C68.2491 110.428 68.3851 111.016 68.3851 111.688C68.3851 112.352 68.2491 112.944 67.9771 113.464C67.7051 113.984 67.3291 114.388 66.8491 114.676C66.3771 114.964 65.8491 115.108 65.2651 115.108C64.7051 115.108 64.2091 114.984 63.7771 114.736C63.3531 114.48 63.0291 114.164 62.8051 113.788V118.12H61.7131V108.424H62.8051V109.636ZM67.2691 111.688C67.2691 111.192 67.1691 110.76 66.9691 110.392C66.7691 110.024 66.4971 109.744 66.1531 109.552C65.8171 109.36 65.4451 109.264 65.0371 109.264C64.6371 109.264 64.2651 109.364 63.9211 109.564C63.5851 109.756 63.3131 110.04 63.1051 110.416C62.9051 110.784 62.8051 111.212 62.8051 111.7C62.8051 112.196 62.9051 112.632 63.1051 113.008C63.3131 113.376 63.5851 113.66 63.9211 113.86C64.2651 114.052 64.6371 114.148 65.0371 114.148C65.4451 114.148 65.8171 114.052 66.1531 113.86C66.4971 113.66 66.7691 113.376 66.9691 113.008C67.1691 112.632 67.2691 112.192 67.2691 111.688ZM72.6904 115.108C72.0744 115.108 71.5144 114.968 71.0104 114.688C70.5144 114.408 70.1224 114.012 69.8344 113.5C69.5544 112.98 69.4144 112.38 69.4144 111.7C69.4144 111.028 69.5584 110.436 69.8464 109.924C70.1424 109.404 70.5424 109.008 71.0464 108.736C71.5504 108.456 72.1144 108.316 72.7384 108.316C73.3624 108.316 73.9264 108.456 74.4304 108.736C74.9344 109.008 75.3304 109.4 75.6184 109.912C75.9144 110.424 76.0624 111.02 76.0624 111.7C76.0624 112.38 75.9104 112.98 75.6064 113.5C75.3104 114.012 74.9064 114.408 74.3944 114.688C73.8824 114.968 73.3144 115.108 72.6904 115.108ZM72.6904 114.148C73.0824 114.148 73.4504 114.056 73.7944 113.872C74.1384 113.688 74.4144 113.412 74.6224 113.044C74.8384 112.676 74.9464 112.228 74.9464 111.7C74.9464 111.172 74.8424 110.724 74.6344 110.356C74.4264 109.988 74.1544 109.716 73.8184 109.54C73.4824 109.356 73.1184 109.264 72.7264 109.264C72.3264 109.264 71.9584 109.356 71.6224 109.54C71.2944 109.716 71.0304 109.988 70.8304 110.356C70.6304 110.724 70.5304 111.172 70.5304 111.7C70.5304 112.236 70.6264 112.688 70.8184 113.056C71.0184 113.424 71.2824 113.7 71.6104 113.884C71.9384 114.06 72.2984 114.148 72.6904 114.148ZM78.5902 109.492C78.7822 109.116 79.0542 108.824 79.4062 108.616C79.7662 108.408 80.2022 108.304 80.7142 108.304V109.432H80.4262C79.2022 109.432 78.5902 110.096 78.5902 111.424V115H77.4982V108.424H78.5902V109.492ZM83.3068 109.324V113.2C83.3068 113.52 83.3748 113.748 83.5108 113.884C83.6468 114.012 83.8828 114.076 84.2188 114.076H85.0228V115H84.0388C83.4308 115 82.9748 114.86 82.6708 114.58C82.3668 114.3 82.2148 113.84 82.2148 113.2V109.324H81.3628V108.424H82.2148V106.768H83.3068V108.424H85.0228V109.324H83.3068ZM92.3459 111.46C92.3459 111.668 92.3339 111.888 92.3099 112.12H87.0539C87.0939 112.768 87.3139 113.276 87.7139 113.644C88.1219 114.004 88.6139 114.184 89.1899 114.184C89.6619 114.184 90.0539 114.076 90.3659 113.86C90.6859 113.636 90.9099 113.34 91.0379 112.972H92.2139C92.0379 113.604 91.6859 114.12 91.1579 114.52C90.6299 114.912 89.9739 115.108 89.1899 115.108C88.5659 115.108 88.0059 114.968 87.5099 114.688C87.0219 114.408 86.6379 114.012 86.3579 113.5C86.0779 112.98 85.9379 112.38 85.9379 111.7C85.9379 111.02 86.0739 110.424 86.3459 109.912C86.6179 109.4 86.9979 109.008 87.4859 108.736C87.9819 108.456 88.5499 108.316 89.1899 108.316C89.8139 108.316 90.3659 108.452 90.8459 108.724C91.3259 108.996 91.6939 109.372 91.9499 109.852C92.2139 110.324 92.3459 110.86 92.3459 111.46ZM91.2179 111.232C91.2179 110.816 91.1259 110.46 90.9419 110.164C90.7579 109.86 90.5059 109.632 90.1859 109.48C89.8739 109.32 89.5259 109.24 89.1419 109.24C88.5899 109.24 88.1179 109.416 87.7259 109.768C87.3419 110.12 87.1219 110.608 87.0659 111.232H91.2179ZM93.3793 111.688C93.3793 111.016 93.5153 110.428 93.7873 109.924C94.0593 109.412 94.4313 109.016 94.9033 108.736C95.3833 108.456 95.9193 108.316 96.5113 108.316C97.0233 108.316 97.4993 108.436 97.9393 108.676C98.3793 108.908 98.7153 109.216 98.9473 109.6V106.12H100.051V115H98.9473V113.764C98.7313 114.156 98.4113 114.48 97.9873 114.736C97.5633 114.984 97.0673 115.108 96.4993 115.108C95.9153 115.108 95.3833 114.964 94.9033 114.676C94.4313 114.388 94.0593 113.984 93.7873 113.464C93.5153 112.944 93.3793 112.352 93.3793 111.688ZM98.9473 111.7C98.9473 111.204 98.8473 110.772 98.6473 110.404C98.4473 110.036 98.1753 109.756 97.8313 109.564C97.4953 109.364 97.1233 109.264 96.7153 109.264C96.3073 109.264 95.9353 109.36 95.5993 109.552C95.2633 109.744 94.9953 110.024 94.7953 110.392C94.5953 110.76 94.4953 111.192 94.4953 111.688C94.4953 112.192 94.5953 112.632 94.7953 113.008C94.9953 113.376 95.2633 113.66 95.5993 113.86C95.9353 114.052 96.3073 114.148 96.7153 114.148C97.1233 114.148 97.4953 114.052 97.8313 113.86C98.1753 113.66 98.4473 113.376 98.6473 113.008C98.8473 112.632 98.9473 112.196 98.9473 111.7ZM109.824 106.636V107.524H106.188V110.344H109.14V111.232H106.188V115H105.096V106.636H109.824ZM114.011 115.108C113.395 115.108 112.835 114.968 112.331 114.688C111.835 114.408 111.443 114.012 111.155 113.5C110.875 112.98 110.735 112.38 110.735 111.7C110.735 111.028 110.879 110.436 111.167 109.924C111.463 109.404 111.863 109.008 112.367 108.736C112.871 108.456 113.435 108.316 114.059 108.316C114.683 108.316 115.247 108.456 115.751 108.736C116.255 109.008 116.651 109.4 116.939 109.912C117.235 110.424 117.383 111.02 117.383 111.7C117.383 112.38 117.231 112.98 116.927 113.5C116.631 114.012 116.227 114.408 115.715 114.688C115.203 114.968 114.635 115.108 114.011 115.108ZM114.011 114.148C114.403 114.148 114.771 114.056 115.115 113.872C115.459 113.688 115.735 113.412 115.943 113.044C116.159 112.676 116.267 112.228 116.267 111.7C116.267 111.172 116.163 110.724 115.955 110.356C115.747 109.988 115.475 109.716 115.139 109.54C114.803 109.356 114.439 109.264 114.047 109.264C113.647 109.264 113.279 109.356 112.943 109.54C112.615 109.716 112.351 109.988 112.151 110.356C111.951 110.724 111.851 111.172 111.851 111.7C111.851 112.236 111.947 112.688 112.139 113.056C112.339 113.424 112.603 113.7 112.931 113.884C113.259 114.06 113.619 114.148 114.011 114.148ZM119.911 109.492C120.103 109.116 120.375 108.824 120.727 108.616C121.087 108.408 121.523 108.304 122.035 108.304V109.432H121.747C120.523 109.432 119.911 110.096 119.911 111.424V115H118.819V108.424H119.911V109.492ZM131.203 108.304C131.715 108.304 132.171 108.412 132.571 108.628C132.971 108.836 133.287 109.152 133.519 109.576C133.751 110 133.867 110.516 133.867 111.124V115H132.787V111.28C132.787 110.624 132.623 110.124 132.295 109.78C131.975 109.428 131.539 109.252 130.987 109.252C130.419 109.252 129.967 109.436 129.631 109.804C129.295 110.164 129.127 110.688 129.127 111.376V115H128.047V111.28C128.047 110.624 127.883 110.124 127.555 109.78C127.235 109.428 126.799 109.252 126.247 109.252C125.679 109.252 125.227 109.436 124.891 109.804C124.555 110.164 124.387 110.688 124.387 111.376V115H123.295V108.424H124.387V109.372C124.603 109.028 124.891 108.764 125.251 108.58C125.619 108.396 126.023 108.304 126.463 108.304C127.015 108.304 127.503 108.428 127.927 108.676C128.351 108.924 128.667 109.288 128.875 109.768C129.059 109.304 129.363 108.944 129.787 108.688C130.211 108.432 130.683 108.304 131.203 108.304ZM135.25 111.688C135.25 111.016 135.386 110.428 135.658 109.924C135.93 109.412 136.302 109.016 136.774 108.736C137.254 108.456 137.786 108.316 138.37 108.316C138.946 108.316 139.446 108.44 139.87 108.688C140.294 108.936 140.61 109.248 140.818 109.624V108.424H141.922V115H140.818V113.776C140.602 114.16 140.278 114.48 139.846 114.736C139.422 114.984 138.926 115.108 138.358 115.108C137.774 115.108 137.246 114.964 136.774 114.676C136.302 114.388 135.93 113.984 135.658 113.464C135.386 112.944 135.25 112.352 135.25 111.688ZM140.818 111.7C140.818 111.204 140.718 110.772 140.518 110.404C140.318 110.036 140.046 109.756 139.702 109.564C139.366 109.364 138.994 109.264 138.586 109.264C138.178 109.264 137.806 109.36 137.47 109.552C137.134 109.744 136.866 110.024 136.666 110.392C136.466 110.76 136.366 111.192 136.366 111.688C136.366 112.192 136.466 112.632 136.666 113.008C136.866 113.376 137.134 113.66 137.47 113.86C137.806 114.052 138.178 114.148 138.586 114.148C138.994 114.148 139.366 114.052 139.702 113.86C140.046 113.66 140.318 113.376 140.518 113.008C140.718 112.632 140.818 112.196 140.818 111.7ZM145.1 109.324V113.2C145.1 113.52 145.168 113.748 145.304 113.884C145.44 114.012 145.676 114.076 146.012 114.076H146.816V115H145.832C145.224 115 144.768 114.86 144.464 114.58C144.16 114.3 144.008 113.84 144.008 113.2V109.324H143.156V108.424H144.008V106.768H145.1V108.424H146.816V109.324H145.1ZM150.467 115.108C149.963 115.108 149.511 115.024 149.111 114.856C148.711 114.68 148.395 114.44 148.163 114.136C147.931 113.824 147.803 113.468 147.779 113.068H148.907C148.939 113.396 149.091 113.664 149.363 113.872C149.643 114.08 150.007 114.184 150.455 114.184C150.871 114.184 151.199 114.092 151.439 113.908C151.679 113.724 151.799 113.492 151.799 113.212C151.799 112.924 151.671 112.712 151.415 112.576C151.159 112.432 150.763 112.292 150.227 112.156C149.739 112.028 149.339 111.9 149.027 111.772C148.723 111.636 148.459 111.44 148.235 111.184C148.019 110.92 147.911 110.576 147.911 110.152C147.911 109.816 148.011 109.508 148.211 109.228C148.411 108.948 148.695 108.728 149.063 108.568C149.431 108.4 149.851 108.316 150.323 108.316C151.051 108.316 151.639 108.5 152.087 108.868C152.535 109.236 152.775 109.74 152.807 110.38H151.715C151.691 110.036 151.551 109.76 151.295 109.552C151.047 109.344 150.711 109.24 150.287 109.24C149.895 109.24 149.583 109.324 149.351 109.492C149.119 109.66 149.003 109.88 149.003 110.152C149.003 110.368 149.071 110.548 149.207 110.692C149.351 110.828 149.527 110.94 149.735 111.028C149.951 111.108 150.247 111.2 150.623 111.304C151.095 111.432 151.479 111.56 151.775 111.688C152.071 111.808 152.323 111.992 152.531 112.24C152.747 112.488 152.859 112.812 152.867 113.212C152.867 113.572 152.767 113.896 152.567 114.184C152.367 114.472 152.083 114.7 151.715 114.868C151.355 115.028 150.939 115.108 150.467 115.108ZM154.756 115.072C154.548 115.072 154.372 115 154.228 114.856C154.084 114.712 154.012 114.536 154.012 114.328C154.012 114.12 154.084 113.944 154.228 113.8C154.372 113.656 154.548 113.584 154.756 113.584C154.956 113.584 155.124 113.656 155.26 113.8C155.404 113.944 155.476 114.12 155.476 114.328C155.476 114.536 155.404 114.712 155.26 114.856C155.124 115 154.956 115.072 154.756 115.072ZM154.756 109.936C154.548 109.936 154.372 109.864 154.228 109.72C154.084 109.576 154.012 109.4 154.012 109.192C154.012 108.984 154.084 108.808 154.228 108.664C154.372 108.52 154.548 108.448 154.756 108.448C154.956 108.448 155.124 108.52 155.26 108.664C155.404 108.808 155.476 108.984 155.476 109.192C155.476 109.4 155.404 109.576 155.26 109.72C155.124 109.864 154.956 109.936 154.756 109.936ZM60.432 127.084C60.432 127.78 60.192 128.36 59.712 128.824C59.24 129.28 58.516 129.508 57.54 129.508H55.932V133H54.84V124.636H57.54C58.484 124.636 59.2 124.864 59.688 125.32C60.184 125.776 60.432 126.364 60.432 127.084ZM57.54 128.608C58.148 128.608 58.596 128.476 58.884 128.212C59.172 127.948 59.316 127.572 59.316 127.084C59.316 126.052 58.724 125.536 57.54 125.536H55.932V128.608H57.54ZM68.3652 133H67.2732L62.8812 126.34V133H61.7892V124.624H62.8812L67.2732 131.272V124.624H68.3652V133ZM76.5627 127.06C76.3307 126.572 75.9947 126.196 75.5547 125.932C75.1147 125.66 74.6027 125.524 74.0187 125.524C73.4347 125.524 72.9067 125.66 72.4347 125.932C71.9707 126.196 71.6027 126.58 71.3307 127.084C71.0667 127.58 70.9347 128.156 70.9347 128.812C70.9347 129.468 71.0667 130.044 71.3307 130.54C71.6027 131.036 71.9707 131.42 72.4347 131.692C72.9067 131.956 73.4347 132.088 74.0187 132.088C74.8347 132.088 75.5067 131.844 76.0347 131.356C76.5627 130.868 76.8707 130.208 76.9587 129.376H73.6227V128.488H78.1227V129.328C78.0587 130.016 77.8427 130.648 77.4747 131.224C77.1067 131.792 76.6227 132.244 76.0227 132.58C75.4227 132.908 74.7547 133.072 74.0187 133.072C73.2427 133.072 72.5347 132.892 71.8947 132.532C71.2547 132.164 70.7467 131.656 70.3707 131.008C70.0027 130.36 69.8187 129.628 69.8187 128.812C69.8187 127.996 70.0027 127.264 70.3707 126.616C70.7467 125.96 71.2547 125.452 71.8947 125.092C72.5347 124.724 73.2427 124.54 74.0187 124.54C74.9067 124.54 75.6907 124.76 76.3707 125.2C77.0587 125.64 77.5587 126.26 77.8707 127.06H76.5627ZM80.6946 131.488L79.3506 134.716H78.6186L79.4946 131.488H80.6946ZM89.3567 124.636V130.816C89.3567 131.504 89.1447 132.056 88.7207 132.472C88.2967 132.88 87.7367 133.084 87.0407 133.084C86.3367 133.084 85.7727 132.876 85.3487 132.46C84.9247 132.036 84.7127 131.46 84.7127 130.732H85.8047C85.8127 131.14 85.9167 131.472 86.1167 131.728C86.3247 131.984 86.6327 132.112 87.0407 132.112C87.4487 132.112 87.7527 131.992 87.9527 131.752C88.1527 131.504 88.2527 131.192 88.2527 130.816V124.636H89.3567ZM97.1 127.084C97.1 127.78 96.86 128.36 96.38 128.824C95.908 129.28 95.184 129.508 94.208 129.508H92.6V133H91.508V124.636H94.208C95.152 124.636 95.868 124.864 96.356 125.32C96.852 125.776 97.1 126.364 97.1 127.084ZM94.208 128.608C94.816 128.608 95.264 128.476 95.552 128.212C95.84 127.948 95.984 127.572 95.984 127.084C95.984 126.052 95.392 125.536 94.208 125.536H92.6V128.608H94.208ZM99.5492 125.524V128.32H102.597V129.22H99.5492V132.1H102.957V133H98.4572V124.624H102.957V125.524H99.5492ZM110.946 127.06C110.714 126.572 110.378 126.196 109.938 125.932C109.498 125.66 108.986 125.524 108.402 125.524C107.818 125.524 107.29 125.66 106.818 125.932C106.354 126.196 105.986 126.58 105.714 127.084C105.45 127.58 105.318 128.156 105.318 128.812C105.318 129.468 105.45 130.044 105.714 130.54C105.986 131.036 106.354 131.42 106.818 131.692C107.29 131.956 107.818 132.088 108.402 132.088C109.218 132.088 109.89 131.844 110.418 131.356C110.946 130.868 111.254 130.208 111.342 129.376H108.006V128.488H112.506V129.328C112.442 130.016 112.226 130.648 111.858 131.224C111.49 131.792 111.006 132.244 110.406 132.58C109.806 132.908 109.138 133.072 108.402 133.072C107.626 133.072 106.918 132.892 106.278 132.532C105.638 132.164 105.13 131.656 104.754 131.008C104.386 130.36 104.202 129.628 104.202 128.812C104.202 127.996 104.386 127.264 104.754 126.616C105.13 125.96 105.638 125.452 106.278 125.092C106.918 124.724 107.626 124.54 108.402 124.54C109.29 124.54 110.074 124.76 110.754 125.2C111.442 125.64 111.942 126.26 112.254 127.06H110.946ZM115.077 131.488L113.733 134.716H113.001L113.877 131.488H115.077ZM125.12 127.084C125.12 127.78 124.88 128.36 124.4 128.824C123.928 129.28 123.204 129.508 122.228 129.508H120.62V133H119.528V124.636H122.228C123.172 124.636 123.888 124.864 124.376 125.32C124.872 125.776 125.12 126.364 125.12 127.084ZM122.228 128.608C122.836 128.608 123.284 128.476 123.572 128.212C123.86 127.948 124.004 127.572 124.004 127.084C124.004 126.052 123.412 125.536 122.228 125.536H120.62V128.608H122.228ZM129.081 124.636C129.993 124.636 130.781 124.808 131.445 125.152C132.117 125.488 132.629 125.972 132.981 126.604C133.341 127.236 133.521 127.98 133.521 128.836C133.521 129.692 133.341 130.436 132.981 131.068C132.629 131.692 132.117 132.172 131.445 132.508C130.781 132.836 129.993 133 129.081 133H126.477V124.636H129.081ZM129.081 132.1C130.161 132.1 130.985 131.816 131.553 131.248C132.121 130.672 132.405 129.868 132.405 128.836C132.405 127.796 132.117 126.984 131.541 126.4C130.973 125.816 130.153 125.524 129.081 125.524H127.569V132.1H129.081ZM139.689 124.636V125.524H136.053V128.344H139.005V129.232H136.053V133H134.961V124.636H139.689Z" fill="#626060"/>
<defs>
<linearGradient id="paint0_linear_210_3270" x1="92.5" y1="0" x2="92.5" y2="210" gradientUnits="userSpaceOnUse">
<stop stop-color="#F5A925"/>
<stop offset="1" stop-color="#ED6237"/>
</linearGradient>
</defs>
</svg>
