<svg width="24" height="26" viewBox="0 0 24 26" fill="none" xmlns="http://www.w3.org/2000/svg">
<path d="M7.84615 21.5H9.69231C9.69231 22.7745 10.7255 23.8077 12 23.8077C13.2745 23.8077 14.3077 22.7745 14.3077 21.5H16.1538C16.1538 23.7941 14.2941 25.6538 12 25.6538C9.70589 25.6538 7.84615 23.7941 7.84615 21.5ZM24 18.2685V18.7316C24 19.754 23.1735 20.5769 22.1532 20.5769H1.84679C0.826761 20.5769 0 19.7512 0 18.7316V18.2685C0 16.6425 1.20371 15.2972 2.76923 15.0717V9.49965C2.76923 4.4005 6.90135 0.269226 12 0.269226C17.0987 0.269226 21.2308 4.40149 21.2308 9.49965V15.0716C22.7984 15.2966 24 16.6409 24 18.2685ZM22.1538 18.2685C22.1538 17.503 21.5348 16.8846 20.765 16.8846C20.0023 16.8846 19.3846 16.2623 19.3846 15.5033V9.49965C19.3846 5.42107 16.0791 2.11538 12 2.11538C7.92087 2.11538 4.61538 5.42019 4.61538 9.49965V15.5033C4.61538 16.2657 3.9945 16.8846 3.23503 16.8846C2.46776 16.8846 1.84615 17.505 1.84615 18.2685V18.7309L22.1532 18.7308L22.1538 18.2685Z" fill="#BF7C97"/>
</svg>
