<svg width="26" height="23" viewBox="0 0 26 23" fill="none" xmlns="http://www.w3.org/2000/svg">
<path d="M3.85321 0.315491H22.1466C24.005 0.315491 25.4569 1.82542 25.4569 3.62573V16.1117C25.4569 17.9701 24.005 19.4219 22.1466 19.4219H11.5771L6.75692 22.8483C6.17618 23.2549 5.36314 22.7903 5.42121 22.0934V19.4219H3.85321C2.0529 19.4219 0.542969 17.9701 0.542969 16.1117V3.62573C0.542969 1.82542 2.0529 0.315491 3.85321 0.315491ZM22.1466 2.05772H3.85321C2.98209 2.05772 2.2852 2.75461 2.2852 3.62573V16.1117C2.2852 16.9828 2.98209 17.7378 3.85321 17.7378H6.23425C6.75692 17.7378 7.10537 18.0862 7.10537 18.6089V20.4673L10.7641 17.912C10.8802 17.7959 11.1125 17.7378 11.2867 17.7378H22.1466C23.0177 17.7378 23.7727 16.9828 23.7727 16.1117V3.62573C23.7727 2.75461 23.0177 2.05772 22.1466 2.05772Z" fill="#BF7C97"/>
</svg>
