<svg width="185" height="210" viewBox="0 0 185 210" fill="none" xmlns="http://www.w3.org/2000/svg">
<rect x="0.5" y="0.5" width="184" height="209" rx="9.5" fill="#FFF8F6" stroke="url(#paint0_linear_210_3255)" stroke-dasharray="8 8"/>
<path d="M100.862 48.6679L99.6493 49.8321C99.2127 50.2687 98.4851 50.2201 98.097 49.6866L94.3134 44.5932C93.8769 44.0112 93.0037 44.0597 92.6157 44.6418L86.1641 55.0224C85.7276 55.7015 86.2126 56.5747 87.0373 56.5747H105.955C106.78 56.5747 107.265 55.653 106.78 54.9739L102.414 48.8134C102.026 48.3283 101.299 48.2313 100.862 48.6679Z" fill="black" stroke="white" stroke-width="0.3"/>
<path d="M103.336 45.5634C104.783 45.5634 105.955 44.3906 105.955 42.944C105.955 41.4973 104.783 40.3246 103.336 40.3246C101.889 40.3246 100.717 41.4973 100.717 42.944C100.717 44.3906 101.889 45.5634 103.336 45.5634Z" fill="black" stroke="white" stroke-width="0.3"/>
<path d="M113.426 34.2126L103.433 24.22C103.239 24.026 102.996 23.9289 102.705 23.9289L93.1494 23.8804C91.6942 19.5632 87.6195 16.4587 82.8657 16.4587C76.8993 16.4587 72 21.3095 72 27.3245C72 32.0782 75.1045 36.1529 79.3732 37.6081V59.4851C79.3732 61.1829 80.7314 62.5411 82.4292 62.5411H110.612C112.31 62.5411 113.668 61.1829 113.668 59.4851V34.8917C113.717 34.6492 113.62 34.3581 113.426 34.2126ZM103.724 27.4215L110.224 33.9215H103.724V27.4215ZM74.0373 27.3245C74.0373 22.4737 78.015 18.4961 82.8657 18.4961C87.7165 18.4961 91.6942 22.4737 91.6942 27.3245C91.6942 32.1753 87.7165 36.1529 82.8657 36.1529C78.015 36.1529 74.0373 32.1753 74.0373 27.3245ZM111.679 59.4851C111.679 60.0672 111.243 60.5038 110.661 60.5038H82.4292C81.8471 60.5038 81.4105 60.0672 81.4105 59.4851V38.0932C81.8956 38.1417 82.3807 38.1902 82.8657 38.1902C88.8322 38.1902 93.7315 33.3394 93.7315 27.3245C93.7315 26.8394 93.683 26.4028 93.6345 25.9178L101.687 25.9663V34.9402C101.687 35.5223 102.123 35.9589 102.705 35.9589H111.679V59.4851Z" fill="black" stroke="white" stroke-width="0.3"/>
<path d="M80.3433 25.2872H81.7015V28.9252C81.7015 29.1193 81.847 29.2648 82.0411 29.2648H83.6903C83.8844 29.2648 84.0299 29.1193 84.0299 28.9252V25.2872H85.3881C85.7277 25.2872 85.9217 24.8991 85.7277 24.6566L83.2053 21.3095C83.0597 21.1155 82.7202 21.1155 82.5747 21.3095L80.0523 24.6566C79.8097 24.8991 80.0038 25.2872 80.3433 25.2872Z" fill="black" stroke="white" stroke-width="0.3"/>
<path d="M87.7161 31.2051C87.7161 30.6715 87.2795 30.1864 86.6974 30.1864H79.0332C78.4996 30.1864 78.0146 30.623 78.0146 31.2051C78.0146 31.7387 78.4511 32.2238 79.0332 32.2238H86.746C87.2795 32.2238 87.7161 31.7872 87.7161 31.2051Z" fill="black" stroke="white" stroke-width="0.3"/>
<rect x="21" y="155" width="144" height="39" rx="8" fill="#D25C2E"/>
<path d="M74.5472 180.112C73.6045 180.112 72.8298 179.93 72.2232 179.566C71.6165 179.193 71.1685 178.67 70.8792 177.998C70.5898 177.326 70.4452 176.533 70.4452 175.618V170.102H72.1952V175.66C72.1952 176.164 72.2652 176.635 72.4052 177.074C72.5545 177.503 72.8018 177.849 73.1472 178.11C73.5018 178.371 73.9778 178.502 74.5752 178.502C75.1818 178.502 75.6485 178.371 75.9752 178.11C76.3112 177.839 76.5445 177.489 76.6752 177.06C76.8152 176.631 76.8852 176.164 76.8852 175.66V170.102H78.6492V175.618C78.6492 176.523 78.5045 177.312 78.2152 177.984C77.9258 178.656 77.4825 179.179 76.8852 179.552C76.2878 179.925 75.5085 180.112 74.5472 180.112ZM80.5164 182.716V172.622H82.1124L82.1964 173.616C82.4858 173.233 82.8311 172.953 83.2324 172.776C83.6338 172.599 84.0771 172.51 84.5624 172.51C85.2904 172.51 85.8924 172.678 86.3684 173.014C86.8444 173.35 87.1991 173.803 87.4324 174.372C87.6658 174.941 87.7824 175.585 87.7824 176.304C87.7824 177.023 87.6611 177.671 87.4184 178.25C87.1758 178.819 86.8071 179.272 86.3124 179.608C85.8271 179.935 85.2158 180.098 84.4784 180.098C84.1331 180.098 83.8158 180.061 83.5264 179.986C83.2464 179.911 82.9944 179.804 82.7704 179.664C82.5558 179.524 82.3738 179.365 82.2244 179.188V182.716H80.5164ZM84.2124 178.558C84.6884 178.558 85.0618 178.455 85.3324 178.25C85.6031 178.035 85.7991 177.76 85.9204 177.424C86.0418 177.079 86.1024 176.715 86.1024 176.332C86.1024 175.931 86.0371 175.557 85.9064 175.212C85.7851 174.867 85.5844 174.587 85.3044 174.372C85.0244 174.157 84.6511 174.05 84.1844 174.05C83.7551 174.05 83.3911 174.157 83.0924 174.372C82.8031 174.577 82.5838 174.853 82.4344 175.198C82.2851 175.543 82.2104 175.917 82.2104 176.318C82.2104 176.729 82.2804 177.107 82.4204 177.452C82.5604 177.788 82.7798 178.059 83.0784 178.264C83.3771 178.46 83.7551 178.558 84.2124 178.558ZM89.1571 180V170.102H90.8651V180H89.1571ZM95.8943 180.098C95.1383 180.098 94.485 179.944 93.9343 179.636C93.393 179.328 92.973 178.889 92.6743 178.32C92.385 177.751 92.2403 177.083 92.2403 176.318C92.2403 175.543 92.3897 174.876 92.6883 174.316C92.987 173.747 93.407 173.303 93.9483 172.986C94.4897 172.669 95.1383 172.51 95.8943 172.51C96.641 172.51 97.285 172.669 97.8263 172.986C98.3677 173.303 98.783 173.751 99.0723 174.33C99.3617 174.899 99.5063 175.571 99.5063 176.346C99.5063 177.102 99.3617 177.765 99.0723 178.334C98.7923 178.894 98.3817 179.328 97.8403 179.636C97.299 179.944 96.6503 180.098 95.8943 180.098ZM95.8803 178.544C96.347 178.544 96.7203 178.441 97.0003 178.236C97.2897 178.031 97.4997 177.76 97.6303 177.424C97.761 177.088 97.8263 176.724 97.8263 176.332C97.8263 175.94 97.761 175.571 97.6303 175.226C97.4997 174.881 97.2897 174.605 97.0003 174.4C96.7203 174.185 96.347 174.078 95.8803 174.078C95.4137 174.078 95.0357 174.185 94.7463 174.4C94.457 174.605 94.247 174.881 94.1163 175.226C93.9857 175.562 93.9203 175.931 93.9203 176.332C93.9203 176.724 93.9857 177.093 94.1163 177.438C94.2563 177.774 94.4663 178.045 94.7463 178.25C95.0357 178.446 95.4137 178.544 95.8803 178.544ZM103.226 180.098C102.881 180.098 102.554 180.051 102.246 179.958C101.938 179.865 101.663 179.729 101.42 179.552C101.177 179.365 100.981 179.137 100.832 178.866C100.692 178.586 100.622 178.259 100.622 177.886C100.622 177.41 100.715 177.023 100.902 176.724C101.089 176.416 101.341 176.183 101.658 176.024C101.985 175.865 102.353 175.758 102.764 175.702C103.175 175.637 103.604 175.604 104.052 175.604H105.494C105.494 175.277 105.443 174.997 105.34 174.764C105.237 174.521 105.074 174.33 104.85 174.19C104.635 174.05 104.355 173.98 104.01 173.98C103.786 173.98 103.576 174.008 103.38 174.064C103.193 174.111 103.03 174.19 102.89 174.302C102.759 174.405 102.666 174.54 102.61 174.708H100.86C100.925 174.325 101.056 173.999 101.252 173.728C101.457 173.448 101.705 173.219 101.994 173.042C102.293 172.865 102.619 172.734 102.974 172.65C103.329 172.557 103.688 172.51 104.052 172.51C105.125 172.51 105.905 172.818 106.39 173.434C106.885 174.05 107.132 174.913 107.132 176.024V180H105.62L105.578 179.048C105.363 179.365 105.107 179.599 104.808 179.748C104.509 179.897 104.22 179.991 103.94 180.028C103.66 180.075 103.422 180.098 103.226 180.098ZM103.562 178.712C103.935 178.712 104.267 178.642 104.556 178.502C104.845 178.362 105.074 178.166 105.242 177.914C105.419 177.662 105.508 177.373 105.508 177.046V176.808H104.164C103.94 176.808 103.716 176.817 103.492 176.836C103.277 176.845 103.081 176.883 102.904 176.948C102.727 177.004 102.582 177.093 102.47 177.214C102.367 177.335 102.316 177.508 102.316 177.732C102.316 177.956 102.372 178.138 102.484 178.278C102.605 178.418 102.759 178.525 102.946 178.6C103.142 178.675 103.347 178.712 103.562 178.712ZM111.773 180.098C111.026 180.098 110.41 179.93 109.925 179.594C109.439 179.249 109.075 178.791 108.833 178.222C108.599 177.653 108.483 177.018 108.483 176.318C108.483 175.59 108.609 174.941 108.861 174.372C109.113 173.793 109.491 173.341 109.995 173.014C110.499 172.678 111.129 172.51 111.885 172.51C112.165 172.51 112.435 172.543 112.697 172.608C112.967 172.664 113.219 172.757 113.453 172.888C113.695 173.009 113.896 173.173 114.055 173.378V170.102H115.763V180H114.111L114.083 179.076C113.905 179.309 113.695 179.501 113.453 179.65C113.219 179.799 112.958 179.911 112.669 179.986C112.379 180.061 112.081 180.098 111.773 180.098ZM112.095 178.558C112.543 178.558 112.911 178.455 113.201 178.25C113.49 178.035 113.705 177.755 113.845 177.41C113.994 177.055 114.069 176.682 114.069 176.29C114.069 175.879 113.994 175.506 113.845 175.17C113.705 174.834 113.49 174.563 113.201 174.358C112.911 174.153 112.543 174.05 112.095 174.05C111.619 174.05 111.241 174.157 110.961 174.372C110.69 174.587 110.489 174.871 110.359 175.226C110.237 175.571 110.177 175.945 110.177 176.346C110.177 176.645 110.209 176.929 110.275 177.2C110.349 177.461 110.461 177.695 110.611 177.9C110.76 178.105 110.956 178.269 111.199 178.39C111.441 178.502 111.74 178.558 112.095 178.558Z" fill="white"/>
<path d="M59.2704 93V83.102H66.0604V84.46H60.7544V87.778H65.3324V89.15H60.7544V93H59.2704ZM67.3986 93V85.622H68.7566L68.8266 86.686C69.0133 86.3967 69.2279 86.168 69.4706 86C69.7133 85.832 69.9793 85.7107 70.2686 85.636C70.5579 85.5613 70.8613 85.524 71.1786 85.524C71.2626 85.524 71.3419 85.524 71.4166 85.524C71.4913 85.524 71.5613 85.524 71.6266 85.524V86.91H71.1786C70.6466 86.91 70.2033 87.0173 69.8486 87.232C69.5033 87.4467 69.2466 87.7453 69.0786 88.128C68.9199 88.5107 68.8406 88.9493 68.8406 89.444V93H67.3986ZM75.8702 93.084C75.1049 93.084 74.4562 92.93 73.9242 92.622C73.3922 92.3047 72.9862 91.8613 72.7062 91.292C72.4356 90.7227 72.3002 90.0647 72.3002 89.318C72.3002 88.562 72.4402 87.904 72.7202 87.344C73.0002 86.7747 73.4062 86.3313 73.9382 86.014C74.4702 85.6873 75.1189 85.524 75.8842 85.524C76.6496 85.524 77.2982 85.6873 77.8302 86.014C78.3622 86.3313 78.7636 86.7747 79.0342 87.344C79.3049 87.9133 79.4402 88.576 79.4402 89.332C79.4402 90.0693 79.3002 90.7227 79.0202 91.292C78.7496 91.8613 78.3482 92.3047 77.8162 92.622C77.2936 92.93 76.6449 93.084 75.8702 93.084ZM75.8702 91.796C76.3742 91.796 76.7802 91.684 77.0882 91.46C77.4056 91.236 77.6389 90.9373 77.7882 90.564C77.9376 90.1813 78.0122 89.766 78.0122 89.318C78.0122 88.87 77.9376 88.4593 77.7882 88.086C77.6389 87.7127 77.4056 87.414 77.0882 87.19C76.7802 86.9567 76.3742 86.84 75.8702 86.84C75.3756 86.84 74.9696 86.9567 74.6522 87.19C74.3349 87.414 74.1016 87.7127 73.9522 88.086C73.8122 88.4593 73.7422 88.87 73.7422 89.318C73.7422 89.7753 73.8122 90.1907 73.9522 90.564C74.1016 90.9373 74.3349 91.236 74.6522 91.46C74.9696 91.684 75.3756 91.796 75.8702 91.796ZM80.9201 93V85.622H82.2921L82.3621 86.658C82.5488 86.3873 82.7728 86.1727 83.0341 86.014C83.2954 85.846 83.5754 85.7247 83.8741 85.65C84.1728 85.566 84.4621 85.524 84.7421 85.524C85.4514 85.524 86.0068 85.678 86.4081 85.986C86.8188 86.2847 87.1081 86.6907 87.2761 87.204C87.4534 87.708 87.5421 88.282 87.5421 88.926V93H86.0861V89.22C86.0861 88.9213 86.0674 88.6273 86.0301 88.338C85.9928 88.0487 85.9134 87.792 85.7921 87.568C85.6801 87.3347 85.5168 87.1527 85.3021 87.022C85.0874 86.882 84.7981 86.812 84.4341 86.812C83.9861 86.812 83.6081 86.9333 83.3001 87.176C82.9921 87.4187 82.7588 87.7453 82.6001 88.156C82.4414 88.5667 82.3621 89.0287 82.3621 89.542V93H80.9201ZM92.1159 93.084C91.3226 93.084 90.7533 92.8693 90.4079 92.44C90.0719 92.0013 89.9039 91.39 89.9039 90.606V86.91H88.7279V85.622H89.9039V83.48H91.3459V85.622H93.5999V86.91H91.3459V90.368C91.3459 90.6293 91.3693 90.8673 91.4159 91.082C91.4719 91.2967 91.5746 91.4647 91.7239 91.586C91.8733 91.7073 92.0879 91.7727 92.3679 91.782C92.5826 91.782 92.7693 91.7447 92.9279 91.67C93.0959 91.5953 93.2313 91.5113 93.3339 91.418L93.8939 92.496C93.7166 92.636 93.5299 92.7527 93.3339 92.846C93.1473 92.93 92.9513 92.9907 92.7459 93.028C92.5406 93.0653 92.3306 93.084 92.1159 93.084ZM102.682 93.112C102.038 93.112 101.431 93.0187 100.862 92.832C100.292 92.6453 99.8116 92.342 99.4196 91.922C99.0276 91.502 98.7662 90.9467 98.6356 90.256H100.162C100.283 90.648 100.479 90.956 100.75 91.18C101.02 91.3947 101.333 91.544 101.688 91.628C102.052 91.712 102.416 91.754 102.78 91.754C103.125 91.754 103.447 91.7073 103.746 91.614C104.054 91.5207 104.306 91.3667 104.502 91.152C104.698 90.9373 104.796 90.6573 104.796 90.312C104.796 90.0507 104.744 89.836 104.642 89.668C104.539 89.5 104.394 89.3647 104.208 89.262C104.03 89.15 103.816 89.0613 103.564 88.996C103.274 88.9027 102.962 88.8233 102.626 88.758C102.299 88.6927 101.972 88.618 101.646 88.534C101.328 88.45 101.03 88.3427 100.75 88.212C100.516 88.1187 100.288 88.0067 100.064 87.876C99.8489 87.736 99.6622 87.5727 99.5036 87.386C99.3449 87.19 99.2142 86.9613 99.1116 86.7C99.0182 86.4387 98.9716 86.14 98.9716 85.804C98.9716 85.356 99.0416 84.9733 99.1816 84.656C99.3309 84.3387 99.5222 84.0727 99.7556 83.858C99.9982 83.6433 100.274 83.4753 100.582 83.354C100.899 83.2233 101.23 83.13 101.576 83.074C101.921 83.018 102.257 82.99 102.584 82.99C103.181 82.99 103.732 83.0833 104.236 83.27C104.74 83.4567 105.155 83.7553 105.482 84.166C105.818 84.5673 106 85.0993 106.028 85.762H104.586C104.548 85.4073 104.427 85.1273 104.222 84.922C104.026 84.7073 103.778 84.558 103.48 84.474C103.181 84.3807 102.864 84.334 102.528 84.334C102.285 84.334 102.042 84.3573 101.8 84.404C101.557 84.4413 101.333 84.516 101.128 84.628C100.932 84.7307 100.773 84.8707 100.652 85.048C100.54 85.2253 100.484 85.4447 100.484 85.706C100.484 85.93 100.53 86.1307 100.624 86.308C100.717 86.476 100.848 86.6207 101.016 86.742C101.193 86.854 101.389 86.952 101.604 87.036C101.996 87.1853 102.425 87.302 102.892 87.386C103.358 87.4607 103.797 87.568 104.208 87.708C104.506 87.8013 104.786 87.918 105.048 88.058C105.309 88.1887 105.533 88.352 105.72 88.548C105.906 88.7347 106.051 88.9587 106.154 89.22C106.256 89.472 106.308 89.766 106.308 90.102C106.308 90.6527 106.21 91.124 106.014 91.516C105.818 91.8987 105.552 92.2067 105.216 92.44C104.88 92.6733 104.492 92.846 104.054 92.958C103.615 93.0607 103.158 93.112 102.682 93.112ZM107.949 93V85.622H109.391V93H107.949ZM108.663 84.642C108.383 84.642 108.155 84.558 107.977 84.39C107.809 84.2127 107.725 83.9887 107.725 83.718C107.725 83.4473 107.814 83.228 107.991 83.06C108.169 82.8827 108.393 82.794 108.663 82.794C108.915 82.794 109.135 82.8827 109.321 83.06C109.517 83.228 109.615 83.4473 109.615 83.718C109.615 83.9887 109.522 84.2127 109.335 84.39C109.158 84.558 108.934 84.642 108.663 84.642ZM114.158 93.084C113.421 93.084 112.809 92.9207 112.324 92.594C111.848 92.258 111.489 91.8053 111.246 91.236C111.013 90.6667 110.896 90.0273 110.896 89.318C110.896 88.5993 111.017 87.9553 111.26 87.386C111.503 86.8073 111.871 86.3547 112.366 86.028C112.861 85.692 113.486 85.524 114.242 85.524C114.522 85.524 114.802 85.5567 115.082 85.622C115.371 85.6873 115.637 85.79 115.88 85.93C116.132 86.0607 116.347 86.238 116.524 86.462V83.102H117.966V93H116.58L116.524 91.992C116.356 92.244 116.146 92.454 115.894 92.622C115.651 92.7807 115.381 92.8973 115.082 92.972C114.783 93.0467 114.475 93.084 114.158 93.084ZM114.396 91.796C114.872 91.796 115.264 91.6793 115.572 91.446C115.889 91.2127 116.127 90.9047 116.286 90.522C116.445 90.1393 116.524 89.724 116.524 89.276C116.524 88.8187 116.445 88.408 116.286 88.044C116.137 87.6707 115.903 87.3767 115.586 87.162C115.278 86.938 114.881 86.826 114.396 86.826C113.892 86.826 113.491 86.9427 113.192 87.176C112.893 87.4 112.674 87.7033 112.534 88.086C112.403 88.4687 112.338 88.8887 112.338 89.346C112.338 89.682 112.375 89.9993 112.45 90.298C112.525 90.5873 112.641 90.8487 112.8 91.082C112.968 91.306 113.183 91.4833 113.444 91.614C113.705 91.7353 114.023 91.796 114.396 91.796ZM122.983 93.084C122.208 93.084 121.559 92.9253 121.037 92.608C120.514 92.2907 120.117 91.852 119.847 91.292C119.585 90.7227 119.455 90.0693 119.455 89.332C119.455 88.5853 119.59 87.9273 119.861 87.358C120.141 86.7887 120.542 86.3407 121.065 86.014C121.597 85.6873 122.236 85.524 122.983 85.524C123.552 85.524 124.047 85.6313 124.467 85.846C124.887 86.0513 125.232 86.3313 125.503 86.686C125.783 87.0407 125.988 87.4373 126.119 87.876C126.249 88.3053 126.305 88.7533 126.287 89.22C126.287 89.3227 126.282 89.4207 126.273 89.514C126.263 89.6073 126.254 89.7053 126.245 89.808H120.911C120.939 90.1813 121.032 90.522 121.191 90.83C121.359 91.138 121.592 91.3853 121.891 91.572C122.189 91.7493 122.558 91.838 122.997 91.838C123.239 91.838 123.473 91.81 123.697 91.754C123.93 91.6887 124.135 91.5907 124.313 91.46C124.499 91.32 124.63 91.1427 124.705 90.928H126.161C126.039 91.4227 125.82 91.8333 125.503 92.16C125.195 92.4773 124.817 92.7107 124.369 92.86C123.93 93.0093 123.468 93.084 122.983 93.084ZM120.939 88.66H124.859C124.849 88.296 124.765 87.974 124.607 87.694C124.448 87.4047 124.229 87.1807 123.949 87.022C123.669 86.854 123.333 86.77 122.941 86.77C122.511 86.77 122.152 86.8587 121.863 87.036C121.583 87.2133 121.363 87.4467 121.205 87.736C121.055 88.016 120.967 88.324 120.939 88.66Z" fill="black"/>
<path d="M41.5369 115.084C40.9849 115.084 40.4889 114.988 40.0489 114.796C39.6169 114.596 39.2769 114.324 39.0289 113.98C38.7809 113.628 38.6529 113.224 38.6449 112.768H39.8089C39.8489 113.16 40.0089 113.492 40.2889 113.764C40.5769 114.028 40.9929 114.16 41.5369 114.16C42.0569 114.16 42.4649 114.032 42.7609 113.776C43.0649 113.512 43.2169 113.176 43.2169 112.768C43.2169 112.448 43.1289 112.188 42.9529 111.988C42.7769 111.788 42.5569 111.636 42.2929 111.532C42.0289 111.428 41.6729 111.316 41.2249 111.196C40.6729 111.052 40.2289 110.908 39.8929 110.764C39.5649 110.62 39.2809 110.396 39.0409 110.092C38.8089 109.78 38.6929 109.364 38.6929 108.844C38.6929 108.388 38.8089 107.984 39.0409 107.632C39.2729 107.28 39.5969 107.008 40.0129 106.816C40.4369 106.624 40.9209 106.528 41.4649 106.528C42.2489 106.528 42.8889 106.724 43.3849 107.116C43.8889 107.508 44.1729 108.028 44.2369 108.676H43.0369C42.9969 108.356 42.8289 108.076 42.5329 107.836C42.2369 107.588 41.8449 107.464 41.3569 107.464C40.9009 107.464 40.5289 107.584 40.2409 107.824C39.9529 108.056 39.8089 108.384 39.8089 108.808C39.8089 109.112 39.8929 109.36 40.0609 109.552C40.2369 109.744 40.4489 109.892 40.6969 109.996C40.9529 110.092 41.3089 110.204 41.7649 110.332C42.3169 110.484 42.7609 110.636 43.0969 110.788C43.4329 110.932 43.7209 111.16 43.9609 111.472C44.2009 111.776 44.3209 112.192 44.3209 112.72C44.3209 113.128 44.2129 113.512 43.9969 113.872C43.7809 114.232 43.4609 114.524 43.0369 114.748C42.6129 114.972 42.1129 115.084 41.5369 115.084ZM51.7599 108.424V115H50.6679V114.028C50.4599 114.364 50.1679 114.628 49.7919 114.82C49.4239 115.004 49.0159 115.096 48.5679 115.096C48.0559 115.096 47.5959 114.992 47.1879 114.784C46.7799 114.568 46.4559 114.248 46.2159 113.824C45.9839 113.4 45.8679 112.884 45.8679 112.276V108.424H46.9479V112.132C46.9479 112.78 47.1119 113.28 47.4399 113.632C47.7679 113.976 48.2159 114.148 48.7839 114.148C49.3679 114.148 49.8279 113.968 50.1639 113.608C50.4999 113.248 50.6679 112.724 50.6679 112.036V108.424H51.7599ZM54.6957 109.636C54.9117 109.26 55.2317 108.948 55.6557 108.7C56.0877 108.444 56.5877 108.316 57.1557 108.316C57.7397 108.316 58.2677 108.456 58.7397 108.736C59.2197 109.016 59.5957 109.412 59.8677 109.924C60.1397 110.428 60.2757 111.016 60.2757 111.688C60.2757 112.352 60.1397 112.944 59.8677 113.464C59.5957 113.984 59.2197 114.388 58.7397 114.676C58.2677 114.964 57.7397 115.108 57.1557 115.108C56.5957 115.108 56.0997 114.984 55.6677 114.736C55.2437 114.48 54.9197 114.164 54.6957 113.788V118.12H53.6037V108.424H54.6957V109.636ZM59.1597 111.688C59.1597 111.192 59.0597 110.76 58.8597 110.392C58.6597 110.024 58.3877 109.744 58.0437 109.552C57.7077 109.36 57.3357 109.264 56.9277 109.264C56.5277 109.264 56.1557 109.364 55.8117 109.564C55.4757 109.756 55.2037 110.04 54.9957 110.416C54.7957 110.784 54.6957 111.212 54.6957 111.7C54.6957 112.196 54.7957 112.632 54.9957 113.008C55.2037 113.376 55.4757 113.66 55.8117 113.86C56.1557 114.052 56.5277 114.148 56.9277 114.148C57.3357 114.148 57.7077 114.052 58.0437 113.86C58.3877 113.66 58.6597 113.376 58.8597 113.008C59.0597 112.632 59.1597 112.192 59.1597 111.688ZM62.8051 109.636C63.0211 109.26 63.3411 108.948 63.7651 108.7C64.1971 108.444 64.6971 108.316 65.2651 108.316C65.8491 108.316 66.3771 108.456 66.8491 108.736C67.3291 109.016 67.7051 109.412 67.9771 109.924C68.2491 110.428 68.3851 111.016 68.3851 111.688C68.3851 112.352 68.2491 112.944 67.9771 113.464C67.7051 113.984 67.3291 114.388 66.8491 114.676C66.3771 114.964 65.8491 115.108 65.2651 115.108C64.7051 115.108 64.2091 114.984 63.7771 114.736C63.3531 114.48 63.0291 114.164 62.8051 113.788V118.12H61.7131V108.424H62.8051V109.636ZM67.2691 111.688C67.2691 111.192 67.1691 110.76 66.9691 110.392C66.7691 110.024 66.4971 109.744 66.1531 109.552C65.8171 109.36 65.4451 109.264 65.0371 109.264C64.6371 109.264 64.2651 109.364 63.9211 109.564C63.5851 109.756 63.3131 110.04 63.1051 110.416C62.9051 110.784 62.8051 111.212 62.8051 111.7C62.8051 112.196 62.9051 112.632 63.1051 113.008C63.3131 113.376 63.5851 113.66 63.9211 113.86C64.2651 114.052 64.6371 114.148 65.0371 114.148C65.4451 114.148 65.8171 114.052 66.1531 113.86C66.4971 113.66 66.7691 113.376 66.9691 113.008C67.1691 112.632 67.2691 112.192 67.2691 111.688ZM72.6904 115.108C72.0744 115.108 71.5144 114.968 71.0104 114.688C70.5144 114.408 70.1224 114.012 69.8344 113.5C69.5544 112.98 69.4144 112.38 69.4144 111.7C69.4144 111.028 69.5584 110.436 69.8464 109.924C70.1424 109.404 70.5424 109.008 71.0464 108.736C71.5504 108.456 72.1144 108.316 72.7384 108.316C73.3624 108.316 73.9264 108.456 74.4304 108.736C74.9344 109.008 75.3304 109.4 75.6184 109.912C75.9144 110.424 76.0624 111.02 76.0624 111.7C76.0624 112.38 75.9104 112.98 75.6064 113.5C75.3104 114.012 74.9064 114.408 74.3944 114.688C73.8824 114.968 73.3144 115.108 72.6904 115.108ZM72.6904 114.148C73.0824 114.148 73.4504 114.056 73.7944 113.872C74.1384 113.688 74.4144 113.412 74.6224 113.044C74.8384 112.676 74.9464 112.228 74.9464 111.7C74.9464 111.172 74.8424 110.724 74.6344 110.356C74.4264 109.988 74.1544 109.716 73.8184 109.54C73.4824 109.356 73.1184 109.264 72.7264 109.264C72.3264 109.264 71.9584 109.356 71.6224 109.54C71.2944 109.716 71.0304 109.988 70.8304 110.356C70.6304 110.724 70.5304 111.172 70.5304 111.7C70.5304 112.236 70.6264 112.688 70.8184 113.056C71.0184 113.424 71.2824 113.7 71.6104 113.884C71.9384 114.06 72.2984 114.148 72.6904 114.148ZM78.5902 109.492C78.7822 109.116 79.0542 108.824 79.4062 108.616C79.7662 108.408 80.2022 108.304 80.7142 108.304V109.432H80.4262C79.2022 109.432 78.5902 110.096 78.5902 111.424V115H77.4982V108.424H78.5902V109.492ZM83.3068 109.324V113.2C83.3068 113.52 83.3748 113.748 83.5108 113.884C83.6468 114.012 83.8828 114.076 84.2188 114.076H85.0228V115H84.0388C83.4308 115 82.9748 114.86 82.6708 114.58C82.3668 114.3 82.2148 113.84 82.2148 113.2V109.324H81.3628V108.424H82.2148V106.768H83.3068V108.424H85.0228V109.324H83.3068ZM92.3459 111.46C92.3459 111.668 92.3339 111.888 92.3099 112.12H87.0539C87.0939 112.768 87.3139 113.276 87.7139 113.644C88.1219 114.004 88.6139 114.184 89.1899 114.184C89.6619 114.184 90.0539 114.076 90.3659 113.86C90.6859 113.636 90.9099 113.34 91.0379 112.972H92.2139C92.0379 113.604 91.6859 114.12 91.1579 114.52C90.6299 114.912 89.9739 115.108 89.1899 115.108C88.5659 115.108 88.0059 114.968 87.5099 114.688C87.0219 114.408 86.6379 114.012 86.3579 113.5C86.0779 112.98 85.9379 112.38 85.9379 111.7C85.9379 111.02 86.0739 110.424 86.3459 109.912C86.6179 109.4 86.9979 109.008 87.4859 108.736C87.9819 108.456 88.5499 108.316 89.1899 108.316C89.8139 108.316 90.3659 108.452 90.8459 108.724C91.3259 108.996 91.6939 109.372 91.9499 109.852C92.2139 110.324 92.3459 110.86 92.3459 111.46ZM91.2179 111.232C91.2179 110.816 91.1259 110.46 90.9419 110.164C90.7579 109.86 90.5059 109.632 90.1859 109.48C89.8739 109.32 89.5259 109.24 89.1419 109.24C88.5899 109.24 88.1179 109.416 87.7259 109.768C87.3419 110.12 87.1219 110.608 87.0659 111.232H91.2179ZM93.3793 111.688C93.3793 111.016 93.5153 110.428 93.7873 109.924C94.0593 109.412 94.4313 109.016 94.9033 108.736C95.3833 108.456 95.9193 108.316 96.5113 108.316C97.0233 108.316 97.4993 108.436 97.9393 108.676C98.3793 108.908 98.7153 109.216 98.9473 109.6V106.12H100.051V115H98.9473V113.764C98.7313 114.156 98.4113 114.48 97.9873 114.736C97.5633 114.984 97.0673 115.108 96.4993 115.108C95.9153 115.108 95.3833 114.964 94.9033 114.676C94.4313 114.388 94.0593 113.984 93.7873 113.464C93.5153 112.944 93.3793 112.352 93.3793 111.688ZM98.9473 111.7C98.9473 111.204 98.8473 110.772 98.6473 110.404C98.4473 110.036 98.1753 109.756 97.8313 109.564C97.4953 109.364 97.1233 109.264 96.7153 109.264C96.3073 109.264 95.9353 109.36 95.5993 109.552C95.2633 109.744 94.9953 110.024 94.7953 110.392C94.5953 110.76 94.4953 111.192 94.4953 111.688C94.4953 112.192 94.5953 112.632 94.7953 113.008C94.9953 113.376 95.2633 113.66 95.5993 113.86C95.9353 114.052 96.3073 114.148 96.7153 114.148C97.1233 114.148 97.4953 114.052 97.8313 113.86C98.1753 113.66 98.4473 113.376 98.6473 113.008C98.8473 112.632 98.9473 112.196 98.9473 111.7ZM109.824 106.636V107.524H106.188V110.344H109.14V111.232H106.188V115H105.096V106.636H109.824ZM114.011 115.108C113.395 115.108 112.835 114.968 112.331 114.688C111.835 114.408 111.443 114.012 111.155 113.5C110.875 112.98 110.735 112.38 110.735 111.7C110.735 111.028 110.879 110.436 111.167 109.924C111.463 109.404 111.863 109.008 112.367 108.736C112.871 108.456 113.435 108.316 114.059 108.316C114.683 108.316 115.247 108.456 115.751 108.736C116.255 109.008 116.651 109.4 116.939 109.912C117.235 110.424 117.383 111.02 117.383 111.7C117.383 112.38 117.231 112.98 116.927 113.5C116.631 114.012 116.227 114.408 115.715 114.688C115.203 114.968 114.635 115.108 114.011 115.108ZM114.011 114.148C114.403 114.148 114.771 114.056 115.115 113.872C115.459 113.688 115.735 113.412 115.943 113.044C116.159 112.676 116.267 112.228 116.267 111.7C116.267 111.172 116.163 110.724 115.955 110.356C115.747 109.988 115.475 109.716 115.139 109.54C114.803 109.356 114.439 109.264 114.047 109.264C113.647 109.264 113.279 109.356 112.943 109.54C112.615 109.716 112.351 109.988 112.151 110.356C111.951 110.724 111.851 111.172 111.851 111.7C111.851 112.236 111.947 112.688 112.139 113.056C112.339 113.424 112.603 113.7 112.931 113.884C113.259 114.06 113.619 114.148 114.011 114.148ZM119.911 109.492C120.103 109.116 120.375 108.824 120.727 108.616C121.087 108.408 121.523 108.304 122.035 108.304V109.432H121.747C120.523 109.432 119.911 110.096 119.911 111.424V115H118.819V108.424H119.911V109.492ZM131.203 108.304C131.715 108.304 132.171 108.412 132.571 108.628C132.971 108.836 133.287 109.152 133.519 109.576C133.751 110 133.867 110.516 133.867 111.124V115H132.787V111.28C132.787 110.624 132.623 110.124 132.295 109.78C131.975 109.428 131.539 109.252 130.987 109.252C130.419 109.252 129.967 109.436 129.631 109.804C129.295 110.164 129.127 110.688 129.127 111.376V115H128.047V111.28C128.047 110.624 127.883 110.124 127.555 109.78C127.235 109.428 126.799 109.252 126.247 109.252C125.679 109.252 125.227 109.436 124.891 109.804C124.555 110.164 124.387 110.688 124.387 111.376V115H123.295V108.424H124.387V109.372C124.603 109.028 124.891 108.764 125.251 108.58C125.619 108.396 126.023 108.304 126.463 108.304C127.015 108.304 127.503 108.428 127.927 108.676C128.351 108.924 128.667 109.288 128.875 109.768C129.059 109.304 129.363 108.944 129.787 108.688C130.211 108.432 130.683 108.304 131.203 108.304ZM135.25 111.688C135.25 111.016 135.386 110.428 135.658 109.924C135.93 109.412 136.302 109.016 136.774 108.736C137.254 108.456 137.786 108.316 138.37 108.316C138.946 108.316 139.446 108.44 139.87 108.688C140.294 108.936 140.61 109.248 140.818 109.624V108.424H141.922V115H140.818V113.776C140.602 114.16 140.278 114.48 139.846 114.736C139.422 114.984 138.926 115.108 138.358 115.108C137.774 115.108 137.246 114.964 136.774 114.676C136.302 114.388 135.93 113.984 135.658 113.464C135.386 112.944 135.25 112.352 135.25 111.688ZM140.818 111.7C140.818 111.204 140.718 110.772 140.518 110.404C140.318 110.036 140.046 109.756 139.702 109.564C139.366 109.364 138.994 109.264 138.586 109.264C138.178 109.264 137.806 109.36 137.47 109.552C137.134 109.744 136.866 110.024 136.666 110.392C136.466 110.76 136.366 111.192 136.366 111.688C136.366 112.192 136.466 112.632 136.666 113.008C136.866 113.376 137.134 113.66 137.47 113.86C137.806 114.052 138.178 114.148 138.586 114.148C138.994 114.148 139.366 114.052 139.702 113.86C140.046 113.66 140.318 113.376 140.518 113.008C140.718 112.632 140.818 112.196 140.818 111.7ZM145.1 109.324V113.2C145.1 113.52 145.168 113.748 145.304 113.884C145.44 114.012 145.676 114.076 146.012 114.076H146.816V115H145.832C145.224 115 144.768 114.86 144.464 114.58C144.16 114.3 144.008 113.84 144.008 113.2V109.324H143.156V108.424H144.008V106.768H145.1V108.424H146.816V109.324H145.1ZM150.467 115.108C149.963 115.108 149.511 115.024 149.111 114.856C148.711 114.68 148.395 114.44 148.163 114.136C147.931 113.824 147.803 113.468 147.779 113.068H148.907C148.939 113.396 149.091 113.664 149.363 113.872C149.643 114.08 150.007 114.184 150.455 114.184C150.871 114.184 151.199 114.092 151.439 113.908C151.679 113.724 151.799 113.492 151.799 113.212C151.799 112.924 151.671 112.712 151.415 112.576C151.159 112.432 150.763 112.292 150.227 112.156C149.739 112.028 149.339 111.9 149.027 111.772C148.723 111.636 148.459 111.44 148.235 111.184C148.019 110.92 147.911 110.576 147.911 110.152C147.911 109.816 148.011 109.508 148.211 109.228C148.411 108.948 148.695 108.728 149.063 108.568C149.431 108.4 149.851 108.316 150.323 108.316C151.051 108.316 151.639 108.5 152.087 108.868C152.535 109.236 152.775 109.74 152.807 110.38H151.715C151.691 110.036 151.551 109.76 151.295 109.552C151.047 109.344 150.711 109.24 150.287 109.24C149.895 109.24 149.583 109.324 149.351 109.492C149.119 109.66 149.003 109.88 149.003 110.152C149.003 110.368 149.071 110.548 149.207 110.692C149.351 110.828 149.527 110.94 149.735 111.028C149.951 111.108 150.247 111.2 150.623 111.304C151.095 111.432 151.479 111.56 151.775 111.688C152.071 111.808 152.323 111.992 152.531 112.24C152.747 112.488 152.859 112.812 152.867 113.212C152.867 113.572 152.767 113.896 152.567 114.184C152.367 114.472 152.083 114.7 151.715 114.868C151.355 115.028 150.939 115.108 150.467 115.108ZM154.756 115.072C154.548 115.072 154.372 115 154.228 114.856C154.084 114.712 154.012 114.536 154.012 114.328C154.012 114.12 154.084 113.944 154.228 113.8C154.372 113.656 154.548 113.584 154.756 113.584C154.956 113.584 155.124 113.656 155.26 113.8C155.404 113.944 155.476 114.12 155.476 114.328C155.476 114.536 155.404 114.712 155.26 114.856C155.124 115 154.956 115.072 154.756 115.072ZM154.756 109.936C154.548 109.936 154.372 109.864 154.228 109.72C154.084 109.576 154.012 109.4 154.012 109.192C154.012 108.984 154.084 108.808 154.228 108.664C154.372 108.52 154.548 108.448 154.756 108.448C154.956 108.448 155.124 108.52 155.26 108.664C155.404 108.808 155.476 108.984 155.476 109.192C155.476 109.4 155.404 109.576 155.26 109.72C155.124 109.864 154.956 109.936 154.756 109.936ZM60.432 127.084C60.432 127.78 60.192 128.36 59.712 128.824C59.24 129.28 58.516 129.508 57.54 129.508H55.932V133H54.84V124.636H57.54C58.484 124.636 59.2 124.864 59.688 125.32C60.184 125.776 60.432 126.364 60.432 127.084ZM57.54 128.608C58.148 128.608 58.596 128.476 58.884 128.212C59.172 127.948 59.316 127.572 59.316 127.084C59.316 126.052 58.724 125.536 57.54 125.536H55.932V128.608H57.54ZM68.3652 133H67.2732L62.8812 126.34V133H61.7892V124.624H62.8812L67.2732 131.272V124.624H68.3652V133ZM76.5627 127.06C76.3307 126.572 75.9947 126.196 75.5547 125.932C75.1147 125.66 74.6027 125.524 74.0187 125.524C73.4347 125.524 72.9067 125.66 72.4347 125.932C71.9707 126.196 71.6027 126.58 71.3307 127.084C71.0667 127.58 70.9347 128.156 70.9347 128.812C70.9347 129.468 71.0667 130.044 71.3307 130.54C71.6027 131.036 71.9707 131.42 72.4347 131.692C72.9067 131.956 73.4347 132.088 74.0187 132.088C74.8347 132.088 75.5067 131.844 76.0347 131.356C76.5627 130.868 76.8707 130.208 76.9587 129.376H73.6227V128.488H78.1227V129.328C78.0587 130.016 77.8427 130.648 77.4747 131.224C77.1067 131.792 76.6227 132.244 76.0227 132.58C75.4227 132.908 74.7547 133.072 74.0187 133.072C73.2427 133.072 72.5347 132.892 71.8947 132.532C71.2547 132.164 70.7467 131.656 70.3707 131.008C70.0027 130.36 69.8187 129.628 69.8187 128.812C69.8187 127.996 70.0027 127.264 70.3707 126.616C70.7467 125.96 71.2547 125.452 71.8947 125.092C72.5347 124.724 73.2427 124.54 74.0187 124.54C74.9067 124.54 75.6907 124.76 76.3707 125.2C77.0587 125.64 77.5587 126.26 77.8707 127.06H76.5627ZM80.6946 131.488L79.3506 134.716H78.6186L79.4946 131.488H80.6946ZM89.3567 124.636V130.816C89.3567 131.504 89.1447 132.056 88.7207 132.472C88.2967 132.88 87.7367 133.084 87.0407 133.084C86.3367 133.084 85.7727 132.876 85.3487 132.46C84.9247 132.036 84.7127 131.46 84.7127 130.732H85.8047C85.8127 131.14 85.9167 131.472 86.1167 131.728C86.3247 131.984 86.6327 132.112 87.0407 132.112C87.4487 132.112 87.7527 131.992 87.9527 131.752C88.1527 131.504 88.2527 131.192 88.2527 130.816V124.636H89.3567ZM97.1 127.084C97.1 127.78 96.86 128.36 96.38 128.824C95.908 129.28 95.184 129.508 94.208 129.508H92.6V133H91.508V124.636H94.208C95.152 124.636 95.868 124.864 96.356 125.32C96.852 125.776 97.1 126.364 97.1 127.084ZM94.208 128.608C94.816 128.608 95.264 128.476 95.552 128.212C95.84 127.948 95.984 127.572 95.984 127.084C95.984 126.052 95.392 125.536 94.208 125.536H92.6V128.608H94.208ZM99.5492 125.524V128.32H102.597V129.22H99.5492V132.1H102.957V133H98.4572V124.624H102.957V125.524H99.5492ZM110.946 127.06C110.714 126.572 110.378 126.196 109.938 125.932C109.498 125.66 108.986 125.524 108.402 125.524C107.818 125.524 107.29 125.66 106.818 125.932C106.354 126.196 105.986 126.58 105.714 127.084C105.45 127.58 105.318 128.156 105.318 128.812C105.318 129.468 105.45 130.044 105.714 130.54C105.986 131.036 106.354 131.42 106.818 131.692C107.29 131.956 107.818 132.088 108.402 132.088C109.218 132.088 109.89 131.844 110.418 131.356C110.946 130.868 111.254 130.208 111.342 129.376H108.006V128.488H112.506V129.328C112.442 130.016 112.226 130.648 111.858 131.224C111.49 131.792 111.006 132.244 110.406 132.58C109.806 132.908 109.138 133.072 108.402 133.072C107.626 133.072 106.918 132.892 106.278 132.532C105.638 132.164 105.13 131.656 104.754 131.008C104.386 130.36 104.202 129.628 104.202 128.812C104.202 127.996 104.386 127.264 104.754 126.616C105.13 125.96 105.638 125.452 106.278 125.092C106.918 124.724 107.626 124.54 108.402 124.54C109.29 124.54 110.074 124.76 110.754 125.2C111.442 125.64 111.942 126.26 112.254 127.06H110.946ZM115.077 131.488L113.733 134.716H113.001L113.877 131.488H115.077ZM125.12 127.084C125.12 127.78 124.88 128.36 124.4 128.824C123.928 129.28 123.204 129.508 122.228 129.508H120.62V133H119.528V124.636H122.228C123.172 124.636 123.888 124.864 124.376 125.32C124.872 125.776 125.12 126.364 125.12 127.084ZM122.228 128.608C122.836 128.608 123.284 128.476 123.572 128.212C123.86 127.948 124.004 127.572 124.004 127.084C124.004 126.052 123.412 125.536 122.228 125.536H120.62V128.608H122.228ZM129.081 124.636C129.993 124.636 130.781 124.808 131.445 125.152C132.117 125.488 132.629 125.972 132.981 126.604C133.341 127.236 133.521 127.98 133.521 128.836C133.521 129.692 133.341 130.436 132.981 131.068C132.629 131.692 132.117 132.172 131.445 132.508C130.781 132.836 129.993 133 129.081 133H126.477V124.636H129.081ZM129.081 132.1C130.161 132.1 130.985 131.816 131.553 131.248C132.121 130.672 132.405 129.868 132.405 128.836C132.405 127.796 132.117 126.984 131.541 126.4C130.973 125.816 130.153 125.524 129.081 125.524H127.569V132.1H129.081ZM139.689 124.636V125.524H136.053V128.344H139.005V129.232H136.053V133H134.961V124.636H139.689Z" fill="#626060"/>
<defs>
<linearGradient id="paint0_linear_210_3255" x1="92.5" y1="0" x2="92.5" y2="210" gradientUnits="userSpaceOnUse">
<stop stop-color="#F5A925"/>
<stop offset="1" stop-color="#ED6237"/>
</linearGradient>
</defs>
</svg>
