<svg width="20" height="20" viewBox="0 0 20 20" fill="none" xmlns="http://www.w3.org/2000/svg">
<path d="M19.85 7.96274V7.96251C19.8509 7.34931 19.7002 6.74539 19.4113 6.20448C19.1225 5.6636 18.7044 5.2025 18.1943 4.86217L19.85 7.96274ZM19.85 7.96274V17.0971C19.85 17.8272 19.5599 18.5274 19.0436 19.0437C18.5273 19.56 17.827 19.85 17.0968 19.85H13.5484C13.1604 19.85 12.7883 19.6959 12.514 19.4216C12.2396 19.1473 12.0855 18.7752 12.0855 18.3873V13.5492V13.3992H11.9355H8.06452H7.91452V13.5492V18.3873C7.91452 18.7752 7.76039 19.1473 7.48605 19.4216C7.2117 19.6959 6.83961 19.85 6.45161 19.85H2.90323C2.17302 19.85 1.47273 19.56 0.956399 19.0437C0.440071 18.5274 0.150004 17.8272 0.150004 17.0971L0.150004 7.95951L0.150004 7.95929C0.149095 7.34609 0.299784 6.74217 0.588666 6.20125C0.877543 5.66035 1.29565 5.19922 1.8058 4.85889C1.80581 4.85889 1.80582 4.85888 1.80583 4.85887L7.93466 0.772399C8.35036 0.496018 8.81743 0.306098 9.30806 0.21395C9.79855 0.121827 10.3026 0.129304 10.7901 0.235932C11.2657 0.342945 11.7165 0.539913 12.1182 0.816225L12.1182 0.81624L12.1201 0.817497L18.1942 4.8621L19.85 7.96274ZM18.2145 17.0971V17.0971C18.2145 17.3935 18.0967 17.6778 17.8871 17.8874C17.6775 18.097 17.3932 18.2147 17.0968 18.2147H13.871H13.721V18.0647V13.2266C13.721 12.8387 13.5668 12.4666 13.2925 12.1923C13.0182 11.918 12.6461 11.7639 12.2581 11.7639H7.74194C7.35394 11.7639 6.98185 11.918 6.7075 12.1923C6.43316 12.4666 6.27903 12.8387 6.27903 13.2266V18.0647V18.2147H6.12903H2.90323C2.60679 18.2147 2.32249 18.097 2.11287 17.8874C1.90325 17.6778 1.78549 17.3935 1.78549 17.0971L1.78549 7.96296C1.78549 7.96293 1.78549 7.96291 1.78549 7.96288V7.96274H1.93549L18.2145 17.0971ZM18.2145 17.0971L18.2113 7.95973L18.0613 7.95951L18.2113 7.95946V7.95968C18.2118 7.61601 18.1273 7.27754 17.9654 6.97439C17.8035 6.67122 17.5692 6.41276 17.2832 6.22202L17.2832 6.222L11.1542 2.1354L11.1542 2.13539L11.1529 2.13452C10.8094 1.91073 10.4083 1.79159 9.99839 1.79159C9.58846 1.79159 9.18736 1.91073 8.84392 2.13452L8.84391 2.13452M18.2145 17.0971L8.84391 2.13452M8.84391 2.13452L8.84255 2.13543M8.84391 2.13452L8.84255 2.13543M8.84255 2.13543L2.71353 6.22525C2.71353 6.22525 2.71352 6.22525 2.71352 6.22526L8.84255 2.13543Z" fill="white" stroke="#4F0E28" stroke-width="0.3"/>
</svg>
