<svg width="26" height="23" viewBox="0 0 26 23" fill="none" xmlns="http://www.w3.org/2000/svg">
<path d="M3.85333 0.315491H22.1467C24.0051 0.315491 25.457 1.82542 25.457 3.62573V16.1117C25.457 17.9701 24.0051 19.4219 22.1467 19.4219H11.5772L6.75704 22.8483C6.1763 23.2549 5.36326 22.7903 5.42134 22.0934V19.4219H3.85333C2.05302 19.4219 0.543091 17.9701 0.543091 16.1117V3.62573C0.543091 1.82542 2.05302 0.315491 3.85333 0.315491ZM22.1467 2.05772H3.85333C2.98221 2.05772 2.28532 2.75461 2.28532 3.62573V16.1117C2.28532 16.9828 2.98221 17.7378 3.85333 17.7378H6.23438C6.75704 17.7378 7.10549 18.0862 7.10549 18.6089V20.4673L10.7642 17.912C10.8803 17.7959 11.1126 17.7378 11.2868 17.7378H22.1467C23.0179 17.7378 23.7728 16.9828 23.7728 16.1117V3.62573C23.7728 2.75461 23.0179 2.05772 22.1467 2.05772Z" fill="#BF7C97"/>
<path d="M11.345 7.34246C11.345 7.80706 10.9385 8.1555 10.4739 8.1555C10.0093 8.1555 9.60278 7.80706 9.60278 7.34246C9.60278 5.42601 11.1708 3.91608 13.0292 3.91608C14.8875 3.91608 16.3975 5.42601 16.3975 7.34246C16.3975 8.6201 15.6425 9.78159 14.481 10.3623C14.1326 10.5366 13.8422 10.8269 13.8422 11.2334V11.7561C13.8422 12.2207 13.4938 12.6272 13.0292 12.6272C12.5646 12.6272 12.1581 12.2207 12.1581 11.7561V11.2334C12.1581 9.89773 12.8549 9.37506 13.8422 8.73625C14.3649 8.44588 14.6553 7.92321 14.6553 7.34246C14.6553 6.41327 13.9584 5.65831 13.0292 5.65831C12.1 5.65831 11.345 6.41327 11.345 7.34246Z" fill="#BF7C97"/>
<path fill-rule="evenodd" clip-rule="evenodd" d="M13.0291 13.7307C13.5518 13.7307 14.0164 14.1372 14.0164 14.7179C14.0164 15.2406 13.5518 15.7052 13.0291 15.7052C12.4484 15.7052 12.0419 15.2406 12.0419 14.7179C12.0419 14.1372 12.4484 13.7307 13.0291 13.7307Z" fill="#BF7C97"/>
</svg>
