<svg width="24" height="24" viewBox="0 0 24 24" fill="none" xmlns="http://www.w3.org/2000/svg">
<path d="M17.6039 2.43696H5.80393C5.13056 2.43696 4.58545 1.89185 4.58545 1.21848C4.58545 0.545108 5.13056 0 5.80393 0H17.6039C18.2773 0 18.8224 0.545108 18.8224 1.21848C18.8224 1.89185 18.2773 2.43696 17.6039 2.43696Z" fill="#BF7C97"/>
<path d="M22.2853 13.0185H1.21848C0.545108 13.0185 0 12.4734 0 11.8C0 11.1266 0.545108 10.5815 1.21848 10.5815H22.2853C22.9587 10.5815 23.5038 11.1266 23.5038 11.8C23.5038 12.4734 22.9587 13.0185 22.2853 13.0185Z" fill="#BF7C97"/>
<path d="M17.6039 23.6H5.80393C5.13056 23.6 4.58545 23.0549 4.58545 22.3815C4.58545 21.7082 5.13056 21.1631 5.80393 21.1631H17.6039C18.2773 21.1631 18.8224 21.7082 18.8224 22.3815C18.8224 23.0549 18.2773 23.6 17.6039 23.6Z" fill="#BF7C97"/>
</svg>
