<svg width="20" height="20" viewBox="0 0 20 20" fill="none" xmlns="http://www.w3.org/2000/svg">
<path fill-rule="evenodd" clip-rule="evenodd" d="M10.0001 4.04618C12.8502 4.04618 14.2873 7.50832 12.2699 9.52598C10.2525 11.5436 6.79016 10.1063 6.79016 7.25617C6.79016 5.4835 8.22746 4.04618 10.0001 4.04618ZM10.0001 0C4.47716 0 0 4.47698 0 10C0 15.5228 4.47739 20 9.99989 20C15.5226 20 20 15.5228 20 10C20 4.47721 15.5228 0 10.0001 0ZM16.3551 3.64473C12.8454 0.134973 7.15463 0.134973 3.64492 3.64473C0.520933 6.76898 0.12642 11.7103 2.73062 15.2859C3.20973 13.2571 4.86497 11.7117 6.84493 10.9462C7.41117 10.7273 7.89443 11.8127 9.99989 11.8127C12.1056 11.8127 12.5881 10.7278 13.1551 10.9462C15.135 11.7119 16.7905 13.2569 17.2694 15.2859C19.8738 11.7103 19.4795 6.76921 16.3551 3.64473ZM3.60979 16.3195C3.6738 14.3268 5.15502 12.7614 6.97598 11.9825C8.83437 13.1058 11.1661 13.1058 13.0243 11.9825C14.845 12.7614 16.3264 14.3268 16.3904 16.3195C12.8782 19.8764 7.12204 19.8764 3.60979 16.3195ZM11.5539 5.70237C10.1732 4.32167 7.80267 5.30484 7.80267 7.25617C7.80267 9.20727 10.173 10.1909 11.5539 8.80998C12.412 7.95184 12.412 6.56074 11.5539 5.70237Z" fill="#BF7C97"/>
</svg>
