<svg width="81" height="113" viewBox="0 0 81 113" fill="none" xmlns="http://www.w3.org/2000/svg">
<circle cx="40.914" cy="40.2543" r="30.8401" fill="url(#paint0_linear_210_2979)"/>
<path d="M36.1019 53.1801C32.7797 52.2872 29.0746 53.7426 25.875 52.4732C25.7999 52.4351 25.716 52.4177 25.632 52.4229C25.5657 52.4398 25.5042 52.472 25.4526 52.517L22.0779 54.9834C22.8001 54.9003 25.1659 55.001 25.8159 55.0294C27.0779 55.0892 28.337 55.1914 29.5932 55.3358C32.1231 55.6269 34.6299 56.0927 37.0955 56.7299C38.4786 57.0866 39.8289 57.6053 41.2099 57.9511C40.8071 56.8024 40.1321 55.7684 39.2425 54.9375C38.353 54.1066 37.2754 53.5036 36.1019 53.1801Z" fill="white"/>
<path d="M37.1852 53.3027C35.3227 52.5302 33.2721 52.3551 31.2587 52.3113C29.8887 52.2829 28.4005 52.2741 27.3193 51.4359C27.8282 51.3762 28.3236 51.2328 28.7856 51.0114C28.976 51.3287 29.3481 51.4863 29.7048 51.5913C31.4556 52.1078 33.3399 51.8539 35.1345 52.1735C36.3039 52.3897 37.4168 52.8427 38.4047 53.5047C39.3926 54.1667 40.2348 55.0237 40.8794 56.0231C41.1513 56.44 41.3435 56.9038 41.4462 57.3909C41.055 56.5782 40.5454 55.8282 39.9339 55.1652C39.1567 54.3605 38.2206 53.7263 37.1852 53.3027Z" fill="white"/>
<path d="M35.8196 51.5957C34.9289 51.4053 33.955 51.3768 33.0489 51.2849C32.6033 51.2491 32.163 51.1647 31.7358 51.0332C31.3089 50.9022 30.926 50.657 30.6284 50.3241C30.9958 50.3628 31.367 50.3078 31.7074 50.1644C31.7566 50.3238 31.8565 50.4629 31.9919 50.5605C32.3587 50.8378 32.789 51.0191 33.2437 51.0879C33.6945 51.1689 34.1541 51.1842 34.6093 51.228C35.8139 51.3063 36.9802 51.6823 38.0037 52.3222C38.3933 52.6018 38.7593 52.9129 39.098 53.2524C38.1557 52.4424 37.0306 51.8738 35.8196 51.5957Z" fill="white"/>
<path d="M41.4484 58.7477C41.4484 58.7477 33.5128 55.6838 21.5329 55.6553L20.4124 56.4716C20.4124 56.4716 30.4292 55.5175 41.4484 58.7477Z" fill="white"/>
<path d="M46.7928 53.1998C50.115 52.3069 53.8223 53.7623 57.0197 52.4929C57.0957 52.455 57.1802 52.4377 57.2649 52.4426C57.3308 52.4606 57.392 52.4927 57.4443 52.5367L60.8168 55.0031C60.0968 54.92 57.7288 55.0207 57.0788 55.0491C55.8153 55.1075 54.5562 55.2096 53.3015 55.3555C50.7716 55.6466 48.2648 56.1124 45.7992 56.7496C44.4161 57.1063 43.0658 57.625 41.6848 57.9708C42.0876 56.8221 42.7626 55.7881 43.6522 54.9572C44.5417 54.1263 45.6193 53.5233 46.7928 53.1998Z" fill="white"/>
<path d="M45.7117 53.329C47.572 52.5564 49.6226 52.3813 51.636 52.3376C53.006 52.3091 54.4942 52.3004 55.5754 51.4622C55.0664 51.4031 54.5708 51.2596 54.109 51.0376C53.8833 51.3372 53.5555 51.5436 53.1877 51.6176C51.4369 52.1319 49.5547 51.8802 47.758 52.1997C46.5886 52.4159 45.4757 52.8689 44.4878 53.5309C43.4999 54.1929 42.6577 55.0499 42.0131 56.0493C41.7419 56.4664 41.5504 56.9302 41.4485 57.4171C41.839 56.6046 42.3479 55.8545 42.9586 55.1914C43.7369 54.386 44.6745 53.7517 45.7117 53.329Z" fill="white"/>
<path d="M47.075 51.6154C47.9658 51.425 48.9418 51.3965 49.8457 51.3046C50.2913 51.2689 50.7316 51.1845 51.1588 51.0529C51.5862 50.9219 51.9693 50.6759 52.2662 50.3417C51.8997 50.382 51.529 50.3277 51.1894 50.1841C51.1394 50.3438 51.0388 50.4828 50.9027 50.5802C50.5361 50.8578 50.1057 51.0391 49.6509 51.1076C49.2001 51.1886 48.7427 51.2039 48.2853 51.2477C47.0807 51.3261 45.9144 51.702 44.8909 52.342C44.5017 52.6221 44.1358 52.9331 43.7966 53.2721C44.7389 52.4621 45.864 51.8935 47.075 51.6154Z" fill="white"/>
<path d="M41.4485 58.7674C41.4485 58.7674 49.3819 55.7035 61.364 55.675L62.4845 56.4914C62.4845 56.4914 52.4655 55.5394 41.4485 58.7674Z" fill="#F5CCDC"/>
<path d="M26.0303 57.2961C26.0303 57.2961 34.6465 57.4909 41.4484 59.581V60.5527C41.4484 60.5527 37.8023 58.6574 26.0303 57.2961Z" fill="#421200"/>
<path d="M56.8644 57.2961C56.8644 57.2961 48.2482 57.4909 41.4485 59.581V60.5527C41.4485 60.5527 45.0989 58.6574 56.8644 57.2961Z" fill="#421200"/>
<path d="M8.5887 34.2494C7.78588 38.3771 7.78588 42.6208 8.5887 46.7485C5.93315 45.6896 4.91162 40.499 4.91162 40.499C4.91162 40.499 5.93315 35.3083 8.5887 34.2494Z" fill="#FFC057"/>
<path d="M22.3564 67.478C19.7341 68.6096 15.3366 65.6571 15.3366 65.6571C15.3366 65.6571 12.3841 61.2617 13.5074 58.6435C15.8587 62.1323 18.8638 65.1324 22.3564 67.478Z" fill="#FFC057"/>
<path d="M46.7485 72.4092C45.6896 75.0668 40.499 76.0883 40.499 76.0883C40.499 76.0883 35.3083 75.0668 34.2473 72.4092C38.3753 73.2093 42.6185 73.2093 46.7465 72.4092H46.7485Z" fill="#FFC057"/>
<path d="M67.4904 58.6435C68.622 61.2658 65.6695 65.6634 65.6695 65.6634C65.6695 65.6634 61.2616 68.6158 58.6455 67.4905C62.1375 65.1396 65.1412 62.1346 67.4904 58.6414V58.6435Z" fill="#FFC057"/>
<path d="M72.4092 34.2494C75.0668 35.3083 76.0883 40.499 76.0883 40.499C76.0883 40.499 75.0668 45.6896 72.4092 46.7506C73.2093 42.6226 73.2093 38.3794 72.4092 34.2515V34.2494Z" fill="#FFC057"/>
<path d="M65.6633 15.3345C65.6633 15.3345 68.6158 19.7362 67.4904 22.3523C65.1418 18.8649 62.1412 15.8643 58.6538 13.5157C61.2616 12.3842 65.6633 15.3345 65.6633 15.3345Z" fill="#FFC057"/>
<path d="M40.499 4.91168C40.499 4.91168 45.6896 5.93321 46.7465 8.58876C42.6188 7.78594 38.375 7.78594 34.2473 8.58876C35.3083 5.93321 40.499 4.91168 40.499 4.91168Z" fill="#FFC057"/>
<path d="M22.3545 13.5074C18.867 15.856 15.8665 18.8566 13.5179 22.344C12.3884 19.7238 15.3388 15.3262 15.3388 15.3262C15.3388 15.3262 19.7363 12.3842 22.3545 13.5074Z" fill="#FFC057"/>
<path d="M71.0201 34.5193C70.6258 32.4922 70.029 30.5098 69.2386 28.6019C69.2394 28.5957 69.2394 28.5895 69.2386 28.5832C66.0743 20.9759 60.0282 14.9298 52.4208 11.7655H52.4022C50.4925 10.9725 48.508 10.3736 46.4786 9.97779C42.529 9.21094 38.4688 9.21094 34.5192 9.97779C32.4921 10.3717 30.5096 10.9685 28.6019 11.7592H28.5853C26.6777 12.5492 24.8545 13.5293 23.1434 14.6847C18.0688 18.1021 14.1102 22.9351 11.7592 28.5832V28.5999C10.9677 30.5081 10.3709 32.4912 9.97773 34.5193C9.21087 38.4689 9.21087 42.5291 9.97773 46.4786C10.3724 48.5059 10.9699 50.4883 11.7612 52.396V52.4126C14.9287 60.0179 20.9738 66.063 28.579 69.2304H28.5956C30.5051 70.0243 32.4896 70.6239 34.5192 71.0201C38.4688 71.787 42.529 71.787 46.4786 71.0201C48.506 70.6262 50.4885 70.0286 52.3959 69.2366H52.4125C60.0194 66.0715 66.0652 60.0256 69.2303 52.4188V52.4022C70.0242 50.4928 70.6238 48.5082 71.0201 46.4786C71.7869 42.5291 71.7869 38.4689 71.0201 34.5193ZM69.6663 46.2129C69.2889 48.1502 68.7185 50.0449 67.9638 51.8686C67.9638 51.8686 67.9638 51.8686 67.9638 51.8831C67.2085 53.7063 66.2715 55.4488 65.1671 57.0842C61.8992 61.9342 57.2785 65.7174 51.8789 67.9639H51.8644C50.041 68.72 48.1462 69.291 46.2086 69.6685C42.4371 70.3982 38.5607 70.3982 34.7892 69.6685C32.8518 69.2903 30.9571 68.7193 29.1334 67.9639H29.1189C21.8467 64.9356 16.0664 59.1554 13.0381 51.8831V51.8686C12.2827 50.0449 11.7117 48.1502 11.3335 46.2129C10.6038 42.4413 10.6038 38.5649 11.3335 34.7934C11.711 32.8558 12.282 30.961 13.0381 29.1376V29.1231C16.0647 21.8502 21.8456 16.0701 29.1189 13.0444H29.1334C30.9571 12.2897 32.8518 11.7193 34.7892 11.3419C38.5607 10.6121 42.4371 10.6121 46.2086 11.3419C48.1459 11.7196 50.0406 12.29 51.8644 13.0444H51.881C59.1541 16.0696 64.9345 21.85 67.9596 29.1231C67.9604 29.1286 67.9604 29.1342 67.9596 29.1397C69.4536 32.7405 70.2227 36.6006 70.2228 40.499C70.2235 42.4168 70.0399 44.3302 69.6746 46.2129H69.6663Z" fill="#421200"/>
<path d="M28.0415 10.4574C28.0402 10.4519 28.0402 10.4463 28.0415 10.4408C28.0975 10.1605 29.0049 6.16161 34.0315 4.60441C38.5744 3.205 40.4991 1 40.4991 1C40.4991 1 42.4217 3.205 46.9521 4.60441C51.9705 6.15746 52.8861 10.1397 52.9484 10.4408V10.4574" stroke="#FFC057" stroke-width="0.98952" stroke-linecap="round" stroke-linejoin="round"/>
<path d="M52.9566 70.5385C52.9577 70.5439 52.9577 70.5496 52.9566 70.5551C52.8963 70.8374 51.9911 74.8363 46.9603 76.3894C42.4236 77.7929 40.4989 80 40.4989 80C40.4989 80 38.5722 77.7929 34.0397 76.3894C29.0006 74.8301 28.1057 70.8125 28.0413 70.553C28.0409 70.5482 28.0409 70.5433 28.0413 70.5385" stroke="#FFC057" stroke-width="0.98952" stroke-linecap="round" stroke-linejoin="round"/>
<path d="M10.4574 52.9566H10.4429C10.1792 52.8984 6.16784 52.0035 4.60856 46.9603C3.205 42.4236 1 40.4989 1 40.4989C1 40.4989 3.205 38.5763 4.60856 34.0438C6.16161 29.0172 10.1605 28.1078 10.4408 28.0496H10.4574" stroke="#FFC057" stroke-width="0.98952" stroke-linecap="round" stroke-linejoin="round"/>
<path d="M70.5383 28.0413H70.557C70.8581 28.1057 74.8404 29.0172 76.3934 34.0355C77.7928 38.568 79.9999 40.4906 79.9999 40.4906C79.9999 40.4906 77.7928 42.4174 76.3934 46.9478C74.8362 51.9786 70.8373 52.8818 70.5549 52.94C70.5495 52.9415 70.5438 52.9415 70.5383 52.94" stroke="#FFC057" stroke-width="0.98952" stroke-linecap="round" stroke-linejoin="round"/>
<path d="M10.4513 28.0621C10.4513 28.0621 10.4513 28.0621 10.4513 28.0476C10.2873 27.7964 8.11552 24.3352 10.5634 19.6864C12.7788 15.4903 12.5795 12.569 12.5795 12.569C12.5795 12.569 15.5008 12.7766 19.697 10.5529C24.3603 8.09463 27.8297 10.2872 28.0623 10.4408" stroke="#FFC057" stroke-width="0.98952" stroke-linecap="round" stroke-linejoin="round"/>
<path d="M70.5488 52.9359V52.9462C70.7024 53.1809 72.8991 56.6482 70.4388 61.3136C68.2275 65.5077 68.4227 68.429 68.4227 68.429C68.4227 68.429 65.5014 68.2317 61.3073 70.445C56.6565 72.893 53.1933 70.7212 52.9441 70.5551H52.9316" stroke="#FFC057" stroke-width="0.98952" stroke-linecap="round" stroke-linejoin="round"/>
<path d="M52.9358 10.4491H52.9503C53.1995 10.2851 56.6627 8.11125 61.3135 10.5613C65.5076 12.7746 68.4289 12.5773 68.4289 12.5773C68.4289 12.5773 68.2338 15.4986 70.445 19.6948C72.895 24.3435 70.7232 27.8047 70.5571 28.0559C70.5571 28.0684 70.5571 28.0704 70.5571 28.0704" stroke="#FFC057" stroke-width="0.98952" stroke-linecap="round" stroke-linejoin="round"/>
<path d="M28.062 70.5467C28.062 70.5467 28.062 70.5467 28.0475 70.5467C27.7963 70.7149 24.3351 72.8867 19.6864 70.4388C15.4902 68.2254 12.5689 68.4227 12.5689 68.4227C12.5689 68.4227 12.7765 65.5014 10.5529 61.3073C8.10493 56.6544 10.2767 53.1933 10.4428 52.9441V52.9296" stroke="#FFC057" stroke-width="0.98952" stroke-linecap="round" stroke-linejoin="round"/>
<path d="M56.4967 1.9115C56.4967 1.9115 58.2615 5.76713 54.3166 7.17069C54.3166 7.17069 52.4396 3.63065 56.4967 1.9115Z" fill="#421200"/>
<path d="M24.5117 1.9115C24.5117 1.9115 22.7448 5.76713 26.6918 7.17069C26.6835 7.17069 28.5584 3.63065 24.5117 1.9115Z" fill="#421200"/>
<path d="M24.5117 79.0865C24.5117 79.0865 22.7448 75.2308 26.6918 73.8273C26.6835 73.8273 28.5584 77.3673 24.5117 79.0865Z" fill="#421200"/>
<path d="M56.4967 79.0865C56.4967 79.0865 58.2615 75.2308 54.3166 73.8273C54.3166 73.8273 52.4396 77.3673 56.4967 79.0865Z" fill="#421200"/>
<path d="M79.0863 56.4966C79.0863 56.4966 75.2307 58.2614 73.8271 54.3144C73.8271 54.3144 77.3672 52.4396 79.0863 56.4966Z" fill="#421200"/>
<path d="M79.0863 24.5117C79.0863 24.5117 75.2307 22.7469 73.8271 26.6918C73.8271 26.6814 77.3672 28.5584 79.0863 24.5117Z" fill="#421200"/>
<path d="M1.91138 24.5117C1.91138 24.5117 5.76701 22.7469 7.17057 26.6918C7.17057 26.6814 3.63053 28.5584 1.91138 24.5117Z" fill="#421200"/>
<path d="M1.91138 56.4966C1.91138 56.4966 5.76701 58.2614 7.17057 54.3144C7.17057 54.3144 3.63053 52.4396 1.91138 56.4966Z" fill="#421200"/>
<path d="M29.5349 40.0712C31.8352 36.9333 33.1587 30.4831 33.5329 27.6502C34.1902 35.19 33.6425 38.7093 33.2865 39.5264L36.1892 42.0597L33.8616 45.6825V42.3321C32.4011 41.5966 29.4911 40.1148 29.5349 40.0712Z" fill="#421200"/>
<path d="M52.0742 40.0712C49.774 36.9333 48.4504 30.4831 48.0762 27.6502C47.419 35.19 47.9666 38.7093 48.3226 39.5264L45.4199 42.0597L47.7476 45.6825V42.3321C49.208 41.5966 52.118 40.1148 52.0742 40.0712Z" fill="#421200"/>
<path d="M39.277 28.0326C39.6775 26.3251 40.3709 20.6261 40.6675 17.9901C40.6675 18.4498 41.7428 24.8767 42.2805 28.0326L43.6153 33.9706L41.7243 36.6523L43.81 42.864L41.3627 45.6824H40.1669L37.6919 42.6724L38.2481 41.0306L39.7498 36.6523L37.9422 33.9706C37.9329 33.8065 37.9199 33.5 37.9422 33.5875C38.1368 32.9855 39.0824 28.8536 39.277 28.0326Z" fill="#421200"/>
<path d="M39.6995 41.3642L40.7458 39.5913V43.1371L39.6995 41.3642Z" fill="#FFBF57"/>
<path d="M41.792 41.3642L40.7457 39.5913V43.1371L41.792 41.3642Z" fill="#FFBF57"/>
<rect x="40.1606" y="45.6824" width="1.18068" height="3.86405" fill="#421200"/>
<circle cx="40.8047" cy="50.1905" r="1.50269" fill="#421200"/>
<path d="M2.53902 93.3088H5.41607L12.3161 108.474L19.1918 93.3088H22.0688L13.9253 111.059H10.6582L2.53902 93.3088ZM26.7484 93.3088H29.406V111.059H26.7484V93.3088ZM36.8916 93.3088H45.474C48.2779 93.3088 50.5454 94.1378 52.2765 95.7713C54.0076 97.4049 54.861 99.5505 54.861 102.208C54.861 104.866 54.0076 107.011 52.3009 108.645C50.6186 110.254 48.3754 111.059 45.5715 111.059H36.8916V93.3088ZM39.5492 95.625V108.742H45.3277C47.4002 108.742 49.0825 108.157 50.3504 106.963C51.6182 105.768 52.2521 104.183 52.2521 102.208C52.2521 100.233 51.5938 98.6484 50.3016 97.4537C49.0094 96.2346 47.327 95.625 45.2302 95.625H39.5492ZM60.5829 111.059H57.779L66.4345 93.3088H69.6042L78.2597 111.059H75.3583L73.1639 106.548H62.7773L60.5829 111.059ZM67.9706 95.6982L63.8013 104.281H72.1155L67.9706 95.6982Z" fill="#421200"/>
<defs>
<linearGradient id="paint0_linear_210_2979" x1="40.914" y1="9.41424" x2="40.914" y2="71.0943" gradientUnits="userSpaceOnUse">
<stop stop-color="#F5A925"/>
<stop offset="1" stop-color="#ED6237"/>
</linearGradient>
</defs>
</svg>
